#N canvas 722 136 450 374 10;
#X obj 108 129 hsl 45 10 0 5 0 0 empty empty rate -2 -8 0 10 -1 -4032
-1 3200 1;
#X obj 169 129 hsl 45 10 0 1 0 0 empty empty depth -2 -8 0 10 -1 -4032
-1 1920 1;
#X floatatom 105 146 5 0 0 0 - - -;
#X floatatom 166 179 5 0 0 0 - - -;
#X floatatom 105 179 5 0 0 0 - - -;
#X obj -8 172 osc~;
#X obj -7 204 +~ 1;
#X obj -7 237 *~ 0.5;
#X obj -7 267 *~;
#X obj -7 299 +~;
#X obj -6 327 outlet~ signal;
#X obj 317 255 swap 1;
#X obj 326 282 -;
#X obj 130 53 inlet rate;
#X obj 223 56 inlet depth;
#X obj 166 148 * 100;
#X obj 55 162 inv;
#X text 141 146 Hz;
#X text 141 178 sec;
#X text 200 179 %;
#X text 264 144 low frequency oscillator;
#X connect 0 0 5 0;
#X connect 0 0 2 0;
#X connect 1 0 8 1;
#X connect 1 0 11 0;
#X connect 1 0 15 0;
#X connect 2 0 16 0;
#X connect 5 0 6 0;
#X connect 6 0 7 0;
#X connect 7 0 8 0;
#X connect 8 0 9 0;
#X connect 9 0 10 0;
#X connect 11 0 12 0;
#X connect 11 1 12 1;
#X connect 12 0 9 1;
#X connect 13 0 0 0;
#X connect 14 0 1 0;
#X connect 15 0 3 0;
#X connect 16 0 4 0;
#X coords 0 -1 1 1 120 100 1 100 100;
