#N canvas 387 79 822 537 10;
#X obj 153 257 vradio 25 1 0 8 empty col1 empty 0 -8 0 10 -228992 -225280
-262144 7;
#X obj 178 257 vradio 25 1 0 8 empty col2 empty 0 -8 0 10 -228992 -225280
-262144 0;
#X obj 203 257 vradio 25 1 0 8 empty col3 empty 0 -8 0 10 -228992 -225280
-262144 0;
#X obj 228 257 vradio 25 1 0 8 empty col4 empty 0 -8 0 10 -228992 -225280
-262144 2;
#X obj 263 257 vradio 25 1 0 8 empty col5 empty 0 -8 0 10 -228992 -225280
-262144 0;
#X obj 288 257 vradio 25 1 0 8 empty col6 empty 0 -8 0 10 -228992 -225280
-262144 5;
#X obj 313 257 vradio 25 1 0 8 empty col7 empty 0 -8 0 10 -228992 -225280
-262144 4;
#X obj 338 257 vradio 25 1 0 8 empty col8 empty 0 -8 0 10 -228992 -225280
-262144 3;
#X obj 444 129 metro 500;
#X obj 444 90 tgl 15 0 empty empty empty 17 7 0 10 -262144 -1 -1 0
1;
#X obj 444 159 counter 1 8;
#X obj 444 189 route 1 2 3 4 5 6 7 8;
#N canvas 515 157 450 300 col1 0;
#X obj 78 162 pack 0 0 0;
#X obj 78 223 s col1;
#X obj 108 123 t b a;
#X obj 78 63 bng 15 250 50 0 empty empty empty 17 7 0 10 -262144 -1
-1;
#X msg 78 193 color \$1 \$2 \$3;
#X obj 178 162 pack 0 0 0;
#X obj 208 123 t b a;
#X obj 178 63 bng 15 250 50 0 empty empty empty 17 7 0 10 -262144 -1
-1;
#X msg 178 193 color \$1 \$2 \$3;
#X obj 178 223 s col8;
#X msg 208 93 7;
#X msg 178 93 8;
#X msg 108 93 17;
#X obj 78 38 inlet;
#X msg 78 93 9;
#X obj 278 162 pack 0 0 0;
#X obj 308 123 t b a;
#X obj 278 63 bng 15 250 50 0 empty empty empty 17 7 0 10 -262144 -1
-1;
#X msg 278 193 color \$1 \$2 \$3;
#X msg 308 93 7;
#X msg 278 93 8;
#X obj 278 223 s col1;
#X obj 278 34 del \$1;
#X obj 311 5 inlet;
#X connect 0 0 4 0;
#X connect 2 0 0 0;
#X connect 2 1 0 1;
#X connect 3 0 14 0;
#X connect 3 0 12 0;
#X connect 3 0 7 0;
#X connect 4 0 1 0;
#X connect 5 0 8 0;
#X connect 6 0 5 0;
#X connect 6 1 5 1;
#X connect 7 0 11 0;
#X connect 7 0 10 0;
#X connect 7 0 22 0;
#X connect 8 0 9 0;
#X connect 10 0 6 0;
#X connect 11 0 5 0;
#X connect 12 0 2 0;
#X connect 13 0 3 0;
#X connect 14 0 0 0;
#X connect 15 0 18 0;
#X connect 16 0 15 0;
#X connect 16 1 15 1;
#X connect 17 0 20 0;
#X connect 17 0 19 0;
#X connect 18 0 21 0;
#X connect 19 0 16 0;
#X connect 20 0 15 0;
#X connect 22 0 17 0;
#X connect 23 0 22 1;
#X restore 444 406 pd col1;
#X floatatom 644 390 5 0 0 0 - - -;
#N canvas 515 157 450 300 col2 0;
#X obj 78 162 pack 0 0 0;
#X obj 108 123 t b a;
#X obj 78 63 bng 15 250 50 0 empty empty empty 17 7 0 10 -262144 -1
-1;
#X msg 78 193 color \$1 \$2 \$3;
#X obj 178 162 pack 0 0 0;
#X obj 208 123 t b a;
#X obj 178 63 bng 15 250 50 0 empty empty empty 17 7 0 10 -262144 -1
-1;
#X msg 178 193 color \$1 \$2 \$3;
#X msg 208 93 7;
#X msg 178 93 8;
#X msg 108 93 17;
#X obj 78 38 inlet;
#X msg 78 93 9;
#X obj 278 162 pack 0 0 0;
#X obj 308 123 t b a;
#X obj 278 63 bng 15 250 50 0 empty empty empty 17 7 0 10 -262144 -1
-1;
#X msg 278 193 color \$1 \$2 \$3;
#X msg 308 93 7;
#X msg 278 93 8;
#X obj 278 34 del \$1;
#X obj 311 5 inlet;
#X obj 78 223 s col2;
#X obj 178 223 s col1;
#X obj 278 223 s col2;
#X connect 0 0 3 0;
#X connect 1 0 0 0;
#X connect 1 1 0 1;
#X connect 2 0 12 0;
#X connect 2 0 10 0;
#X connect 2 0 6 0;
#X connect 3 0 21 0;
#X connect 4 0 7 0;
#X connect 5 0 4 0;
#X connect 5 1 4 1;
#X connect 6 0 9 0;
#X connect 6 0 8 0;
#X connect 6 0 19 0;
#X connect 7 0 22 0;
#X connect 8 0 5 0;
#X connect 9 0 4 0;
#X connect 10 0 1 0;
#X connect 11 0 2 0;
#X connect 12 0 0 0;
#X connect 13 0 16 0;
#X connect 14 0 13 0;
#X connect 14 1 13 1;
#X connect 15 0 18 0;
#X connect 15 0 17 0;
#X connect 16 0 23 0;
#X connect 17 0 14 0;
#X connect 18 0 13 0;
#X connect 19 0 15 0;
#X connect 20 0 19 1;
#X restore 459 386 pd col2;
#N canvas 515 157 450 300 col3 0;
#X obj 78 162 pack 0 0 0;
#X obj 108 123 t b a;
#X obj 78 63 bng 15 250 50 0 empty empty empty 17 7 0 10 -262144 -1
-1;
#X msg 78 193 color \$1 \$2 \$3;
#X obj 178 162 pack 0 0 0;
#X obj 208 123 t b a;
#X obj 178 63 bng 15 250 50 0 empty empty empty 17 7 0 10 -262144 -1
-1;
#X msg 178 193 color \$1 \$2 \$3;
#X msg 208 93 7;
#X msg 178 93 8;
#X msg 108 93 17;
#X obj 78 38 inlet;
#X msg 78 93 9;
#X obj 278 162 pack 0 0 0;
#X obj 308 123 t b a;
#X obj 278 63 bng 15 250 50 0 empty empty empty 17 7 0 10 -262144 -1
-1;
#X msg 278 193 color \$1 \$2 \$3;
#X msg 308 93 7;
#X msg 278 93 8;
#X obj 278 34 del \$1;
#X obj 311 5 inlet;
#X obj 78 223 s col3;
#X obj 178 223 s col2;
#X obj 278 223 s col3;
#X connect 0 0 3 0;
#X connect 1 0 0 0;
#X connect 1 1 0 1;
#X connect 2 0 12 0;
#X connect 2 0 10 0;
#X connect 2 0 6 0;
#X connect 3 0 21 0;
#X connect 4 0 7 0;
#X connect 5 0 4 0;
#X connect 5 1 4 1;
#X connect 6 0 9 0;
#X connect 6 0 8 0;
#X connect 6 0 19 0;
#X connect 7 0 22 0;
#X connect 8 0 5 0;
#X connect 9 0 4 0;
#X connect 10 0 1 0;
#X connect 11 0 2 0;
#X connect 12 0 0 0;
#X connect 13 0 16 0;
#X connect 14 0 13 0;
#X connect 14 1 13 1;
#X connect 15 0 18 0;
#X connect 15 0 17 0;
#X connect 16 0 23 0;
#X connect 17 0 14 0;
#X connect 18 0 13 0;
#X connect 19 0 15 0;
#X connect 20 0 19 1;
#X restore 474 366 pd col3;
#N canvas 515 157 450 300 col4 0;
#X obj 78 162 pack 0 0 0;
#X obj 108 123 t b a;
#X obj 78 63 bng 15 250 50 0 empty empty empty 17 7 0 10 -262144 -1
-1;
#X msg 78 193 color \$1 \$2 \$3;
#X obj 178 162 pack 0 0 0;
#X obj 208 123 t b a;
#X obj 178 63 bng 15 250 50 0 empty empty empty 17 7 0 10 -262144 -1
-1;
#X msg 178 193 color \$1 \$2 \$3;
#X msg 208 93 7;
#X msg 178 93 8;
#X msg 108 93 17;
#X obj 78 38 inlet;
#X msg 78 93 9;
#X obj 278 162 pack 0 0 0;
#X obj 308 123 t b a;
#X obj 278 63 bng 15 250 50 0 empty empty empty 17 7 0 10 -262144 -1
-1;
#X msg 278 193 color \$1 \$2 \$3;
#X msg 308 93 7;
#X msg 278 93 8;
#X obj 278 34 del \$1;
#X obj 311 5 inlet;
#X obj 78 223 s col4;
#X obj 278 223 s col4;
#X obj 178 223 s col3;
#X connect 0 0 3 0;
#X connect 1 0 0 0;
#X connect 1 1 0 1;
#X connect 2 0 12 0;
#X connect 2 0 10 0;
#X connect 2 0 6 0;
#X connect 3 0 21 0;
#X connect 4 0 7 0;
#X connect 5 0 4 0;
#X connect 5 1 4 1;
#X connect 6 0 9 0;
#X connect 6 0 8 0;
#X connect 6 0 19 0;
#X connect 7 0 23 0;
#X connect 8 0 5 0;
#X connect 9 0 4 0;
#X connect 10 0 1 0;
#X connect 11 0 2 0;
#X connect 12 0 0 0;
#X connect 13 0 16 0;
#X connect 14 0 13 0;
#X connect 14 1 13 1;
#X connect 15 0 18 0;
#X connect 15 0 17 0;
#X connect 16 0 22 0;
#X connect 17 0 14 0;
#X connect 18 0 13 0;
#X connect 19 0 15 0;
#X connect 20 0 19 1;
#X restore 490 346 pd col4;
#N canvas 515 157 450 300 col5 0;
#X obj 78 162 pack 0 0 0;
#X obj 108 123 t b a;
#X obj 78 63 bng 15 250 50 0 empty empty empty 17 7 0 10 -262144 -1
-1;
#X msg 78 193 color \$1 \$2 \$3;
#X obj 178 162 pack 0 0 0;
#X obj 208 123 t b a;
#X obj 178 63 bng 15 250 50 0 empty empty empty 17 7 0 10 -262144 -1
-1;
#X msg 178 193 color \$1 \$2 \$3;
#X msg 208 93 7;
#X msg 178 93 8;
#X msg 108 93 17;
#X obj 78 38 inlet;
#X msg 78 93 9;
#X obj 278 162 pack 0 0 0;
#X obj 308 123 t b a;
#X obj 278 63 bng 15 250 50 0 empty empty empty 17 7 0 10 -262144 -1
-1;
#X msg 278 193 color \$1 \$2 \$3;
#X msg 308 93 7;
#X msg 278 93 8;
#X obj 278 34 del \$1;
#X obj 311 5 inlet;
#X obj 78 223 s col5;
#X obj 278 223 s col5;
#X obj 178 223 s col4;
#X connect 0 0 3 0;
#X connect 1 0 0 0;
#X connect 1 1 0 1;
#X connect 2 0 12 0;
#X connect 2 0 10 0;
#X connect 2 0 6 0;
#X connect 3 0 21 0;
#X connect 4 0 7 0;
#X connect 5 0 4 0;
#X connect 5 1 4 1;
#X connect 6 0 9 0;
#X connect 6 0 8 0;
#X connect 6 0 19 0;
#X connect 7 0 23 0;
#X connect 8 0 5 0;
#X connect 9 0 4 0;
#X connect 10 0 1 0;
#X connect 11 0 2 0;
#X connect 12 0 0 0;
#X connect 13 0 16 0;
#X connect 14 0 13 0;
#X connect 14 1 13 1;
#X connect 15 0 18 0;
#X connect 15 0 17 0;
#X connect 16 0 22 0;
#X connect 17 0 14 0;
#X connect 18 0 13 0;
#X connect 19 0 15 0;
#X connect 20 0 19 1;
#X restore 505 326 pd col5;
#N canvas 515 157 450 300 col6 0;
#X obj 78 162 pack 0 0 0;
#X obj 108 123 t b a;
#X obj 78 63 bng 15 250 50 0 empty empty empty 17 7 0 10 -262144 -1
-1;
#X msg 78 193 color \$1 \$2 \$3;
#X obj 178 162 pack 0 0 0;
#X obj 208 123 t b a;
#X obj 178 63 bng 15 250 50 0 empty empty empty 17 7 0 10 -262144 -1
-1;
#X msg 178 193 color \$1 \$2 \$3;
#X msg 208 93 7;
#X msg 178 93 8;
#X msg 108 93 17;
#X obj 78 38 inlet;
#X msg 78 93 9;
#X obj 278 162 pack 0 0 0;
#X obj 308 123 t b a;
#X obj 278 63 bng 15 250 50 0 empty empty empty 17 7 0 10 -262144 -1
-1;
#X msg 278 193 color \$1 \$2 \$3;
#X msg 308 93 7;
#X msg 278 93 8;
#X obj 278 34 del \$1;
#X obj 311 5 inlet;
#X obj 78 223 s col6;
#X obj 178 223 s col5;
#X obj 278 223 s col6;
#X connect 0 0 3 0;
#X connect 1 0 0 0;
#X connect 1 1 0 1;
#X connect 2 0 12 0;
#X connect 2 0 10 0;
#X connect 2 0 6 0;
#X connect 3 0 21 0;
#X connect 4 0 7 0;
#X connect 5 0 4 0;
#X connect 5 1 4 1;
#X connect 6 0 9 0;
#X connect 6 0 8 0;
#X connect 6 0 19 0;
#X connect 7 0 22 0;
#X connect 8 0 5 0;
#X connect 9 0 4 0;
#X connect 10 0 1 0;
#X connect 11 0 2 0;
#X connect 12 0 0 0;
#X connect 13 0 16 0;
#X connect 14 0 13 0;
#X connect 14 1 13 1;
#X connect 15 0 18 0;
#X connect 15 0 17 0;
#X connect 16 0 23 0;
#X connect 17 0 14 0;
#X connect 18 0 13 0;
#X connect 19 0 15 0;
#X connect 20 0 19 1;
#X restore 520 306 pd col6;
#N canvas 515 157 450 300 col7 0;
#X obj 78 162 pack 0 0 0;
#X obj 108 123 t b a;
#X obj 78 63 bng 15 250 50 0 empty empty empty 17 7 0 10 -262144 -1
-1;
#X msg 78 193 color \$1 \$2 \$3;
#X obj 178 162 pack 0 0 0;
#X obj 208 123 t b a;
#X obj 178 63 bng 15 250 50 0 empty empty empty 17 7 0 10 -262144 -1
-1;
#X msg 178 193 color \$1 \$2 \$3;
#X msg 208 93 7;
#X msg 178 93 8;
#X msg 108 93 17;
#X obj 78 38 inlet;
#X msg 78 93 9;
#X obj 278 162 pack 0 0 0;
#X obj 308 123 t b a;
#X obj 278 63 bng 15 250 50 0 empty empty empty 17 7 0 10 -262144 -1
-1;
#X msg 278 193 color \$1 \$2 \$3;
#X msg 308 93 7;
#X msg 278 93 8;
#X obj 278 34 del \$1;
#X obj 311 5 inlet;
#X obj 78 223 s col7;
#X obj 178 223 s col6;
#X obj 278 223 s col7;
#X connect 0 0 3 0;
#X connect 1 0 0 0;
#X connect 1 1 0 1;
#X connect 2 0 12 0;
#X connect 2 0 10 0;
#X connect 2 0 6 0;
#X connect 3 0 21 0;
#X connect 4 0 7 0;
#X connect 5 0 4 0;
#X connect 5 1 4 1;
#X connect 6 0 9 0;
#X connect 6 0 8 0;
#X connect 6 0 19 0;
#X connect 7 0 22 0;
#X connect 8 0 5 0;
#X connect 9 0 4 0;
#X connect 10 0 1 0;
#X connect 11 0 2 0;
#X connect 12 0 0 0;
#X connect 13 0 16 0;
#X connect 14 0 13 0;
#X connect 14 1 13 1;
#X connect 15 0 18 0;
#X connect 15 0 17 0;
#X connect 16 0 23 0;
#X connect 17 0 14 0;
#X connect 18 0 13 0;
#X connect 19 0 15 0;
#X connect 20 0 19 1;
#X restore 536 286 pd col7;
#N canvas 515 157 450 300 col8 0;
#X obj 78 162 pack 0 0 0;
#X obj 108 123 t b a;
#X obj 78 63 bng 15 250 50 0 empty empty empty 17 7 0 10 -262144 -1
-1;
#X msg 78 193 color \$1 \$2 \$3;
#X obj 178 162 pack 0 0 0;
#X obj 208 123 t b a;
#X obj 178 63 bng 15 250 50 0 empty empty empty 17 7 0 10 -262144 -1
-1;
#X msg 178 193 color \$1 \$2 \$3;
#X msg 208 93 7;
#X msg 178 93 8;
#X msg 108 93 17;
#X obj 78 38 inlet;
#X msg 78 93 9;
#X obj 278 162 pack 0 0 0;
#X obj 308 123 t b a;
#X obj 278 63 bng 15 250 50 0 empty empty empty 17 7 0 10 -262144 -1
-1;
#X msg 278 193 color \$1 \$2 \$3;
#X msg 308 93 7;
#X msg 278 93 8;
#X obj 278 34 del \$1;
#X obj 311 5 inlet;
#X obj 78 223 s col8;
#X obj 178 223 s col7;
#X obj 278 223 s col8;
#X connect 0 0 3 0;
#X connect 1 0 0 0;
#X connect 1 1 0 1;
#X connect 2 0 12 0;
#X connect 2 0 10 0;
#X connect 2 0 6 0;
#X connect 3 0 21 0;
#X connect 4 0 7 0;
#X connect 5 0 4 0;
#X connect 5 1 4 1;
#X connect 6 0 9 0;
#X connect 6 0 8 0;
#X connect 6 0 19 0;
#X connect 7 0 22 0;
#X connect 8 0 5 0;
#X connect 9 0 4 0;
#X connect 10 0 1 0;
#X connect 11 0 2 0;
#X connect 12 0 0 0;
#X connect 13 0 16 0;
#X connect 14 0 13 0;
#X connect 14 1 13 1;
#X connect 15 0 18 0;
#X connect 15 0 17 0;
#X connect 16 0 23 0;
#X connect 17 0 14 0;
#X connect 18 0 13 0;
#X connect 19 0 15 0;
#X connect 20 0 19 1;
#X restore 551 266 pd col8;
#X obj 444 64 loadbang;
#X floatatom 495 100 5 50 1000 0 - - -;
#X obj 644 116 expr ($f1/5)*3;
#X obj 16 384 cnv 15 100 60 empty tavolozza1 empty 20 12 0 14 -262131
-262144 0;
#X msg 19 320 color \$1;
#X floatatom 19 293 5 0 0 0 - - -;
#X obj 19 349 s tavolozza1;
#X obj 398 191 s N;
#X obj 19 268 r N;
#X obj 115 128 pack 0 0 0;
#X obj 146 100 t b a;
#X obj 115 181 s Rbut1;
#X msg 115 154 color \$1 \$2 \$3;
#X obj 115 44 bng 15 250 50 0 empty empty empty 17 7 0 10 -262144 -1
-1;
#X obj 225 128 pack 0 0 0;
#X obj 256 100 t b a;
#X obj 225 181 s Rbut1;
#X msg 225 154 color \$1 \$2 \$3;
#X obj 225 44 bng 15 250 50 0 empty empty empty 17 7 0 10 -262144 -1
-1;
#X obj 115 17 route 0 1;
#X floatatom 177 12 5 0 0 0 - - -;
#X obj 115 -10 r Sbut1;
#X msg 225 68 13;
#X msg 256 68 13;
#X msg 115 68 14;
#X msg 146 68 14;
#X obj 38 81 cnv 15 32 32 empty empty empty 20 12 0 14 -159808 -66577
0;
#X obj 39 82 tgl 30 0 Sbut1 Rbut1 empty 17 7 0 10 -258699 -258699 -262144
1 1;
#X connect 8 0 10 0;
#X connect 9 0 8 0;
#X connect 10 0 11 0;
#X connect 10 0 28 0;
#X connect 11 0 12 0;
#X connect 11 1 14 0;
#X connect 11 2 15 0;
#X connect 11 3 16 0;
#X connect 11 4 17 0;
#X connect 11 5 18 0;
#X connect 11 6 19 0;
#X connect 11 7 20 0;
#X connect 13 0 20 1;
#X connect 13 0 19 1;
#X connect 13 0 18 1;
#X connect 13 0 17 1;
#X connect 13 0 16 1;
#X connect 13 0 15 1;
#X connect 13 0 14 1;
#X connect 13 0 12 1;
#X connect 21 0 9 0;
#X connect 22 0 8 1;
#X connect 22 0 23 0;
#X connect 23 0 13 0;
#X connect 25 0 27 0;
#X connect 26 0 25 0;
#X connect 29 0 26 0;
#X connect 30 0 33 0;
#X connect 31 0 30 0;
#X connect 31 1 30 1;
#X connect 33 0 32 0;
#X connect 34 0 45 0;
#X connect 34 0 46 0;
#X connect 35 0 38 0;
#X connect 36 0 35 0;
#X connect 36 1 35 1;
#X connect 38 0 37 0;
#X connect 39 0 43 0;
#X connect 39 0 44 0;
#X connect 40 0 34 0;
#X connect 40 1 39 0;
#X connect 42 0 40 0;
#X connect 42 0 41 0;
#X connect 43 0 35 0;
#X connect 44 0 36 0;
#X connect 45 0 30 0;
#X connect 46 0 31 0;
