#N canvas 696 155 450 309 10;
#X obj 89 65 tgl 15 0 empty empty empty 17 7 0 10 -262144 -1 -1 0 1
;
#X obj 108 65 tgl 15 0 empty empty empty 17 7 0 10 -262144 -1 -1 1
1;
#X obj 126 65 tgl 15 0 empty empty empty 17 7 0 10 -262144 -1 -1 1
1;
#X obj 145 65 tgl 15 0 empty empty empty 17 7 0 10 -262144 -1 -1 0
1;
#X obj 164 65 tgl 15 0 empty empty empty 17 7 0 10 -262144 -1 -1 0
1;
#X obj 71 41 bng 15 250 50 0 empty empty copy 17 7 0 10 -262144 -1
-1;
#X obj 71 95 pack f f f f f f;
#X obj 92 232 tgl 15 0 empty empty empty 17 7 0 10 -262144 -1 -1 0
1;
#X obj 113 232 tgl 15 0 empty empty empty 17 7 0 10 -262144 -1 -1 1
1;
#X obj 134 232 tgl 15 0 empty empty empty 17 7 0 10 -262144 -1 -1 1
1;
#X obj 155 232 tgl 15 0 empty empty empty 17 7 0 10 -262144 -1 -1 0
1;
#X obj 176 232 tgl 15 0 empty empty empty 17 7 0 10 -262144 -1 -1 0
1;
#X obj 82 150 bng 15 250 50 0 empty empty paste 17 7 0 10 -262144 -1
-1;
#X obj 71 201 unpack f f f f f f;
#X msg 71 126 set \$1 \$2 \$3 \$4 \$5 \$6;
#X msg 71 174 0 0 1 1 0 0;
#X connect 0 0 6 1;
#X connect 1 0 6 2;
#X connect 2 0 6 3;
#X connect 3 0 6 4;
#X connect 4 0 6 5;
#X connect 5 0 6 0;
#X connect 6 0 14 0;
#X connect 12 0 15 0;
#X connect 13 1 7 0;
#X connect 13 2 8 0;
#X connect 13 3 9 0;
#X connect 13 4 10 0;
#X connect 13 5 11 0;
#X connect 14 0 15 0;
#X connect 15 0 13 0;
