#N canvas 781 267 450 300 10;
#X obj 57 184 *~;
#X obj 57 224 output~;
#X obj 72 71 receive beat;
#X obj 216 65 tgl 15 0 empty empty empty 17 7 0 10 -262144 -1 -1 1
1;
#X obj 216 87 metro 1500;
#X obj 216 112 send beat;
#X obj 106 93 delay 100;
#X msg 106 119 0;
#X floatatom 72 154 5 0 0 0 - - -;
#X msg 207 26 350;
#X msg 250 26 650;
#X msg 293 26 950;
#X msg 332 25 1500;
#X msg 381 25 2150;
#X msg 72 120 0.3;
#X obj 58 42 osc~ 700;
#X connect 0 0 1 0;
#X connect 0 0 1 1;
#X connect 2 0 14 0;
#X connect 2 0 6 0;
#X connect 3 0 4 0;
#X connect 4 0 5 0;
#X connect 6 0 7 0;
#X connect 7 0 8 0;
#X connect 8 0 0 1;
#X connect 9 0 4 1;
#X connect 10 0 4 1;
#X connect 11 0 4 1;
#X connect 12 0 4 1;
#X connect 13 0 4 1;
#X connect 14 0 8 0;
#X connect 15 0 0 0;
