#N canvas 625 663 394 301 10;
#N canvas 28 33 1291 710 padkontrol 0;
#X obj 341 -103 stripnote;
#X obj 203 135 bng 20 250 50 0 empty empty empty 17 7 0 10 -204786
-1 -1;
#X obj 229 135 bng 20 250 50 0 empty empty empty 17 7 0 10 -203904
-1 -1;
#X obj 255 134 bng 20 250 50 0 empty empty empty 17 7 0 10 -232576
-1 -1;
#X obj 281 134 bng 20 250 50 0 empty empty empty 17 7 0 10 -258113
-1 -1;
#X obj 203 165 bng 20 250 50 0 empty empty empty 17 7 0 10 -260097
-1 -1;
#X obj 229 164 bng 20 250 50 0 empty empty empty 17 7 0 10 -159808
-1 -1;
#X obj 255 164 bng 20 250 50 0 empty empty empty 17 7 0 10 -13381 -1
-1;
#X obj 281 164 bng 20 250 50 0 empty empty empty 17 7 0 10 -4160 -1
-1;
#X obj 203 194 bng 20 250 50 0 empty empty empty 17 7 0 10 -86277 -1
-1;
#X obj 229 194 bng 20 250 50 0 empty empty empty 17 7 0 10 -257985
-1 -1;
#X obj 255 193 bng 20 250 50 0 empty empty empty 17 7 0 10 -4034 -1
-1;
#X obj 281 193 bng 20 250 50 0 empty empty empty 17 7 0 10 -261682
-1 -1;
#X obj 203 222 bng 20 250 50 0 empty empty empty 17 7 0 10 -83269 -1
-1;
#X obj 229 222 bng 20 250 50 0 empty empty empty 17 7 0 10 -262144
-1 -1;
#X obj 255 222 bng 20 250 50 0 empty empty empty 17 7 0 10 -232576
-1 -1;
#X obj 281 221 bng 20 250 50 0 empty empty empty 17 7 0 10 -204800
-1 -1;
#X obj 341 -132 notein 10;
#X floatatom 405 -103 5 0 0 0 - - -;
#X obj 341 -73 select 1 2 3 4 5 6 7 8 9 10 11 12 13 14 15 16;
#X floatatom 98 313 5 0 0 1 Xpad - -;
#X floatatom 177 314 5 0 0 1 Ypad - -;
#X obj 98 281 ctlin 16 10;
#X obj 177 281 ctlin 17 10;
#X obj 105 204 grid grid1 60 0 127 40 0 127 0 1 1 8 8 31 239;
#X obj 98 340 pack f f;
#X msg 178 339 bang;
#X msg 98 366 xvalues \$1 \$2;
#X obj 112 496 outlet;
#X obj 177 496 outlet;
#X obj 248 357 route 72;
#X obj 248 383 route 32;
#X obj 248 413 / 127;
#X obj 248 447 tgl 15 0 empty empty empty 17 7 0 10 -262144 -1 -1 1
1;
#X obj 248 331 r \$0-sideButs;
#X obj 246 106 knob 16 16 0 127 0 0 empty empty empty 0 -8 0 8 -262144
-1 -1 768 1;
#X obj 286 106 knob 16 16 0 127 0 0 empty empty empty 0 -8 0 8 -262144
-1 -1 744 1;
#X obj 230 111 tgl 10 0 empty empty empty 17 7 0 10 -262144 -1 -1 0
1;
#X obj 270 111 tgl 10 0 empty empty empty 17 7 0 10 -262144 -1 -1 0
1;
#X obj 178 -124 route 73 72;
#X obj 178 -91 route 0 1;
#X obj 249 -90 route 13 14;
#X obj 178 -153 r \$0-sideButs;
#X obj 292 -56 / 127;
#X obj 249 -57 / 127;
#X obj 180 136 tgl 10 0 empty empty empty 17 7 0 10 -262144 -1 -1 0
1;
#X obj 180 150 tgl 10 0 empty empty empty 17 7 0 10 -262144 -1 -1 0
1;
#X obj 180 163 tgl 10 0 empty empty empty 17 7 0 10 -262144 -1 -1 0
1;
#X obj 180 176 tgl 10 0 empty empty empty 17 7 0 10 -262144 -1 -1 0
1;
#X obj 180 201 tgl 10 0 empty empty empty 17 7 0 10 -262144 -1 -1 0
1;
#X obj 180 216 tgl 10 0 empty empty empty 17 7 0 10 -262144 -1 -1 0
1;
#X obj 180 232 tgl 10 0 empty empty empty 17 7 0 10 -262144 -1 -1 0
1;
#X obj 488 -6 r \$0-sideButs;
#X obj 488 22 route 72 67;
#X obj 488 50 route 0 1 9 10 18 17 16;
#X obj 489 79 / 127;
#X obj 489 104 / 127;
#X obj 489 131 / 127;
#X obj 488 158 / 127;
#X obj 433 343 / 127;
#X obj 433 372 / 127;
#X obj 433 399 / 127;
#X obj 748 471 midiout;
#X msg 479 462 32;
#X msg 479 413 33;
#X msg 481 362 34;
#X obj -24 23 nbx 3 24 -1e+37 1e+37 0 0 empty empty empty 0 -8 0 20
-262144 -1 -1 0 256;
#X obj -24 -178 r \$0-sideButs;
#X obj -24 -150 route 72 67;
#X obj 55 -103 route 0;
#X obj 55 -3 + 1;
#X obj 89 -3 - 1;
#X obj 55 -35 f;
#X obj 89 -35 f;
#X obj 55 -75 select 1 127;
#X obj 55 30 max 0;
#X obj 55 497 outlet;
#X msg -24 -18 0;
#X obj -24 -112 route 2;
#X obj -24 -83 / 127;
#X obj -24 -44 select 1;
#X obj 151 139 tgl 10 0 empty empty empty 17 7 0 10 -262144 -1 -1 0
1;
#X obj 109 156 tgl 10 0 empty empty empty 17 7 0 10 -262144 -1 -1 0
1;
#X obj 131 156 tgl 10 0 empty empty empty 17 7 0 10 -262144 -1 -1 0
1;
#X obj 151 155 tgl 10 0 empty empty empty 17 7 0 10 -262144 -1 -1 0
1;
#X obj 109 176 tgl 10 0 empty empty empty 17 7 0 10 -262144 -1 -1 0
1;
#X obj 131 176 tgl 10 0 empty empty empty 17 7 0 10 -262144 -1 -1 0
1;
#X obj 151 175 tgl 10 0 empty empty empty 17 7 0 10 -262144 -1 -1 0
1;
#X obj 109 190 tgl 10 0 empty empty empty 17 7 0 10 -262144 -1 -1 0
1;
#X obj 131 190 tgl 10 0 empty empty empty 17 7 0 10 -262144 -1 -1 0
1;
#X obj 151 189 tgl 10 0 empty empty empty 17 7 0 10 -262144 -1 -1 0
1;
#X obj -209 68 route 2 11 12 15 3 4 5 6 7 8;
#X obj -209 12 r \$0-sideButs;
#X obj -209 40 route 72 67;
#X obj -74 100 / 127;
#X obj -74 126 / 127;
#X obj -75 150 / 127;
#X obj -74 180 / 127;
#X obj -74 206 / 127;
#X obj -75 230 / 127;
#X obj -74 261 / 127;
#X obj -75 287 / 127;
#X obj -75 311 / 127;
#X obj -180 479 midiout;
#X msg -180 453 240 \, 66 \, 64 \, 110 \, 8 \, 1 \, \$1 \, 68 \, 247
;
#N canvas 180 128 1170 624 pad_light_feedback 0;
#X obj -74 428 midiout;
#X obj -74 273 select 1 2 3 4;
#X obj 205 428 midiout;
#X obj 205 273 select 5 6 7 8;
#X obj 476 428 midiout;
#X obj 476 273 select 9 10 11 12;
#X obj 756 423 midiout;
#X obj 756 268 select 13 14 15 16;
#X obj -74 70 notein 10;
#X floatatom -63 95 5 0 0 0 - - -;
#X floatatom -18 95 5 0 0 0 - - -;
#X obj -74 166 stripnote;
#X obj -74 133 spigot;
#X obj 105 124 tgl 16 0 empty empty empty 17 7 0 10 -262144 -1 -1 1
1;
#X obj -23 133 spigot;
#X obj 126 124 nbx 3 16 -1e+37 1e+37 0 0 empty empty note 0 24 0 14
-262144 -1 -1 14 256;
#X obj 179 124 nbx 3 16 -1e+37 1e+37 0 0 empty empty velocity 0 24
0 14 -262144 -1 -1 25 256;
#X msg -74 314 240 \, 66 \, 64 \, 110 \, 8 \, 1 \, 0 \, 68 \, 247;
#X msg -61 340 240 \, 66 \, 64 \, 110 \, 8 \, 1 \, 1 \, 68 \, 247;
#X msg -45 363 240 \, 66 \, 64 \, 110 \, 8 \, 1 \, 2 \, 68 \, 247;
#X msg -25 389 240 \, 66 \, 64 \, 110 \, 8 \, 1 \, 3 \, 68 \, 247;
#X msg 205 314 240 \, 66 \, 64 \, 110 \, 8 \, 1 \, 4 \, 68 \, 247;
#X msg 218 340 240 \, 66 \, 64 \, 110 \, 8 \, 1 \, 5 \, 68 \, 247;
#X msg 234 363 240 \, 66 \, 64 \, 110 \, 8 \, 1 \, 6 \, 68 \, 247;
#X msg 254 389 240 \, 66 \, 64 \, 110 \, 8 \, 1 \, 7 \, 68 \, 247;
#X msg 476 314 240 \, 66 \, 64 \, 110 \, 8 \, 1 \, 8 \, 68 \, 247;
#X msg 489 340 240 \, 66 \, 64 \, 110 \, 8 \, 1 \, 9 \, 68 \, 247;
#X msg 505 363 240 \, 66 \, 64 \, 110 \, 8 \, 1 \, 10 \, 68 \, 247
;
#X msg 525 389 240 \, 66 \, 64 \, 110 \, 8 \, 1 \, 11 \, 68 \, 247
;
#X msg 756 309 240 \, 66 \, 64 \, 110 \, 8 \, 1 \, 12 \, 68 \, 247
;
#X msg 769 335 240 \, 66 \, 64 \, 110 \, 8 \, 1 \, 13 \, 68 \, 247
;
#X msg 785 358 240 \, 66 \, 64 \, 110 \, 8 \, 1 \, 14 \, 68 \, 247
;
#X msg 805 384 240 \, 66 \, 64 \, 110 \, 8 \, 1 \, 15 \, 68 \, 247
;
#X obj 105 49 loadbang;
#X connect 1 0 17 0;
#X connect 1 1 18 0;
#X connect 1 2 19 0;
#X connect 1 3 20 0;
#X connect 3 0 21 0;
#X connect 3 1 22 0;
#X connect 3 2 23 0;
#X connect 3 3 24 0;
#X connect 5 0 25 0;
#X connect 5 1 26 0;
#X connect 5 2 27 0;
#X connect 5 3 28 0;
#X connect 7 0 29 0;
#X connect 7 1 30 0;
#X connect 7 2 31 0;
#X connect 7 3 32 0;
#X connect 8 0 9 0;
#X connect 8 0 12 0;
#X connect 8 1 10 0;
#X connect 8 1 14 0;
#X connect 11 0 1 0;
#X connect 11 0 3 0;
#X connect 11 0 5 0;
#X connect 11 0 7 0;
#X connect 11 0 15 0;
#X connect 11 1 16 0;
#X connect 12 0 11 0;
#X connect 13 0 12 1;
#X connect 13 0 14 1;
#X connect 14 0 11 1;
#X connect 17 0 0 0;
#X connect 18 0 0 0;
#X connect 19 0 0 0;
#X connect 20 0 0 0;
#X connect 21 0 2 0;
#X connect 22 0 2 0;
#X connect 23 0 2 0;
#X connect 24 0 2 0;
#X connect 25 0 4 0;
#X connect 26 0 4 0;
#X connect 27 0 4 0;
#X connect 28 0 4 0;
#X connect 29 0 6 0;
#X connect 30 0 6 0;
#X connect 31 0 6 0;
#X connect 32 0 6 0;
#X connect 33 0 13 0;
#X coords 0 -1 1 1 140 60 1 100 100;
#X restore 476 -147 pd pad_light_feedback;
#X floatatom 110 135 5 0 0 0 - - -;
#X msg 772 436 240 \, 66 \, 64 \, 110 \, 8 \, 1 \, \$1 \, 0 \, 247
;
#X msg 748 344 240 \, 66 \, 64 \, 110 \, 8 \, 1 \, \$1 \, 32 \, 247
;
#X obj 799 398 f;
#X msg 546 101 16;
#X msg 625 97 17;
#X msg 545 174 25;
#X msg 626 173 26;
#X obj 546 77 select 1 0;
#X obj 625 77 select 1 0;
#X obj 545 153 select 1 0;
#X obj 626 152 select 1 0;
#X obj 481 341 select 1 0;
#X obj 479 391 select 1 0;
#X obj 479 441 select 1 0;
#X obj 546 124 t f b;
#X obj 625 121 t f b;
#X obj 545 198 t f b;
#X obj 626 197 t f b;
#X obj 836 180 select 16 17 25 26;
#X msg 836 214 0;
#X msg 870 214 1;
#X msg 905 214 2;
#X msg 938 214 3;
#X obj 557 341 t f b;
#X obj 558 392 t f b;
#X obj 558 440 t f b;
#X obj 718 403 f;
#X obj 341 494 outlet;
#X obj -290 217 select 1 0;
#X floatatom -158 426 5 0 0 0 - - -;
#X msg 14 -17 18;
#X msg -290 237 19;
#X obj -290 262 select 1 0;
#X obj -290 310 select 1 0;
#X obj -211 216 select 1 0;
#X msg -290 282 20;
#X msg -290 330 21;
#X msg -211 236 22;
#X obj -211 263 select 1 0;
#X msg -211 283 23;
#X obj -211 310 select 1 0;
#X msg -211 330 24;
#X obj -288 111 select 1 0;
#X obj -289 156 select 1 0;
#X obj -208 110 select 1 0;
#X msg -288 131 27;
#X msg -208 130 28;
#X msg -289 177 31;
#X obj 748 38 select 1 0;
#X obj 831 36 select 1 0;
#X msg 748 61 29;
#X msg 831 59 30;
#X obj 249 -29 sel 1;
#X obj 292 -29 sel 1;
#X msg 781 61 29;
#X msg 865 59 30;
#X obj 357 143 sel 16;
#X msg 390 166 0;
#X msg 357 165 1;
#X msg 389 216 0;
#X msg 356 215 1;
#X obj 356 193 sel 17;
#X msg 389 263 0;
#X msg 356 262 1;
#X obj 356 241 sel 25;
#X msg 389 310 0;
#X msg 356 309 1;
#X obj 356 287 sel 26;
#X obj 341 435 list prepend pad;
#X obj 836 265 list prepend switch;
#X connect 0 0 18 0;
#X connect 0 0 19 0;
#X connect 0 0 175 0;
#X connect 17 0 0 0;
#X connect 17 1 0 1;
#X connect 19 0 1 0;
#X connect 19 1 2 0;
#X connect 19 2 3 0;
#X connect 19 3 4 0;
#X connect 19 4 5 0;
#X connect 19 5 6 0;
#X connect 19 6 7 0;
#X connect 19 7 8 0;
#X connect 19 8 9 0;
#X connect 19 9 10 0;
#X connect 19 10 11 0;
#X connect 19 11 12 0;
#X connect 19 12 13 0;
#X connect 19 13 14 0;
#X connect 19 14 15 0;
#X connect 19 15 16 0;
#X connect 20 0 25 0;
#X connect 20 0 28 0;
#X connect 21 0 25 1;
#X connect 21 0 26 0;
#X connect 21 0 29 0;
#X connect 22 0 20 0;
#X connect 23 0 21 0;
#X connect 25 0 27 0;
#X connect 26 0 20 0;
#X connect 27 0 24 0;
#X connect 30 0 31 0;
#X connect 31 0 32 0;
#X connect 32 0 33 0;
#X connect 34 0 30 0;
#X connect 37 0 155 0;
#X connect 38 0 156 0;
#X connect 39 0 40 0;
#X connect 39 1 41 0;
#X connect 40 0 35 0;
#X connect 40 1 36 0;
#X connect 41 0 44 0;
#X connect 41 1 43 0;
#X connect 42 0 39 0;
#X connect 43 0 160 0;
#X connect 44 0 159 0;
#X connect 52 0 53 0;
#X connect 53 0 54 0;
#X connect 54 0 55 0;
#X connect 54 1 56 0;
#X connect 54 2 57 0;
#X connect 54 3 58 0;
#X connect 54 4 59 0;
#X connect 54 5 60 0;
#X connect 54 6 61 0;
#X connect 55 0 114 0;
#X connect 56 0 115 0;
#X connect 57 0 116 0;
#X connect 58 0 117 0;
#X connect 59 0 49 0;
#X connect 59 0 118 0;
#X connect 60 0 50 0;
#X connect 60 0 119 0;
#X connect 61 0 51 0;
#X connect 61 0 120 0;
#X connect 63 0 132 0;
#X connect 64 0 131 0;
#X connect 65 0 130 0;
#X connect 66 0 73 1;
#X connect 66 0 72 1;
#X connect 67 0 68 0;
#X connect 68 0 78 0;
#X connect 68 1 69 0;
#X connect 69 0 74 0;
#X connect 70 0 75 0;
#X connect 71 0 75 0;
#X connect 72 0 70 0;
#X connect 73 0 71 0;
#X connect 74 0 72 0;
#X connect 74 1 73 0;
#X connect 75 0 66 0;
#X connect 75 0 76 0;
#X connect 75 0 106 0;
#X connect 77 0 66 0;
#X connect 77 0 106 0;
#X connect 78 0 79 0;
#X connect 79 0 80 0;
#X connect 79 0 81 0;
#X connect 80 0 77 0;
#X connect 80 0 137 0;
#X connect 91 1 94 0;
#X connect 91 2 95 0;
#X connect 91 3 96 0;
#X connect 91 4 97 0;
#X connect 91 5 98 0;
#X connect 91 6 99 0;
#X connect 91 7 100 0;
#X connect 91 8 101 0;
#X connect 91 9 102 0;
#X connect 92 0 93 0;
#X connect 93 0 91 0;
#X connect 94 0 82 0;
#X connect 94 0 149 0;
#X connect 95 0 83 0;
#X connect 95 0 151 0;
#X connect 96 0 84 0;
#X connect 96 0 150 0;
#X connect 97 0 85 0;
#X connect 97 0 135 0;
#X connect 98 0 86 0;
#X connect 98 0 139 0;
#X connect 99 0 87 0;
#X connect 99 0 140 0;
#X connect 100 0 88 0;
#X connect 100 0 141 0;
#X connect 101 0 89 0;
#X connect 101 0 145 0;
#X connect 102 0 90 0;
#X connect 102 0 147 0;
#X connect 104 0 103 0;
#X connect 106 0 72 1;
#X connect 106 0 73 1;
#X connect 107 0 62 0;
#X connect 108 0 62 0;
#X connect 109 0 107 0;
#X connect 110 0 121 0;
#X connect 111 0 122 0;
#X connect 112 0 123 0;
#X connect 113 0 124 0;
#X connect 114 0 110 0;
#X connect 115 0 111 0;
#X connect 116 0 112 0;
#X connect 117 0 113 0;
#X connect 118 0 65 0;
#X connect 119 0 64 0;
#X connect 120 0 63 0;
#X connect 121 0 109 1;
#X connect 121 0 108 0;
#X connect 121 0 125 0;
#X connect 121 0 163 0;
#X connect 121 0 168 0;
#X connect 121 0 171 0;
#X connect 121 0 174 0;
#X connect 121 1 109 0;
#X connect 122 0 109 1;
#X connect 122 0 108 0;
#X connect 122 0 125 0;
#X connect 122 0 163 0;
#X connect 122 0 168 0;
#X connect 122 0 171 0;
#X connect 122 0 174 0;
#X connect 122 1 109 0;
#X connect 123 0 109 1;
#X connect 123 0 108 0;
#X connect 123 0 125 0;
#X connect 123 0 163 0;
#X connect 123 0 168 0;
#X connect 123 0 171 0;
#X connect 123 0 174 0;
#X connect 123 1 109 0;
#X connect 124 0 109 1;
#X connect 124 0 108 0;
#X connect 124 0 125 0;
#X connect 124 0 163 0;
#X connect 124 0 168 0;
#X connect 124 0 171 0;
#X connect 124 0 174 0;
#X connect 124 1 109 0;
#X connect 125 0 126 0;
#X connect 125 1 127 0;
#X connect 125 2 128 0;
#X connect 125 3 129 0;
#X connect 126 0 176 0;
#X connect 127 0 176 0;
#X connect 128 0 176 0;
#X connect 129 0 176 0;
#X connect 130 0 108 0;
#X connect 130 0 133 1;
#X connect 130 1 133 0;
#X connect 131 0 108 0;
#X connect 131 0 133 1;
#X connect 131 1 133 0;
#X connect 132 0 108 0;
#X connect 132 0 133 1;
#X connect 132 1 133 0;
#X connect 133 0 107 0;
#X connect 135 0 138 0;
#X connect 136 0 104 0;
#X connect 137 0 104 0;
#X connect 138 0 104 0;
#X connect 139 0 142 0;
#X connect 140 0 143 0;
#X connect 141 0 144 0;
#X connect 142 0 104 0;
#X connect 143 0 104 0;
#X connect 144 0 104 0;
#X connect 145 0 146 0;
#X connect 146 0 104 0;
#X connect 147 0 148 0;
#X connect 148 0 104 0;
#X connect 149 0 152 0;
#X connect 150 0 154 0;
#X connect 151 0 153 0;
#X connect 152 0 104 0;
#X connect 153 0 104 0;
#X connect 154 0 104 0;
#X connect 155 0 157 0;
#X connect 155 1 161 0;
#X connect 156 0 158 0;
#X connect 156 1 162 0;
#X connect 157 0 108 0;
#X connect 158 0 108 0;
#X connect 159 0 37 0;
#X connect 160 0 38 0;
#X connect 161 0 107 0;
#X connect 162 0 107 0;
#X connect 163 0 165 0;
#X connect 163 1 164 0;
#X connect 164 0 45 0;
#X connect 165 0 45 0;
#X connect 166 0 46 0;
#X connect 167 0 46 0;
#X connect 168 0 167 0;
#X connect 168 1 166 0;
#X connect 169 0 47 0;
#X connect 170 0 47 0;
#X connect 171 0 170 0;
#X connect 171 1 169 0;
#X connect 172 0 48 0;
#X connect 173 0 48 0;
#X connect 174 0 173 0;
#X connect 174 1 172 0;
#X connect 175 0 134 0;
#X connect 176 0 134 0;
#X coords 0 -1 1 1 210 150 1 100 100;
#X restore -24 112 pd padkontrol;
#N canvas 422 89 1211 612 native_mode 0;
#X obj 74 525 midiout;
#X msg 74 184 240 \, 66 \, 64 \, 110 \, 8 \, 0 \, 0 \, 1 \, 247;
#X msg 99 213 240 \, 66 \, 64 \, 110 \, 8 \, 0 \, 0 \, 0 \, 247;
#X msg 159 272 240 \, 66 \, 64 \, 110 \, 8 \, 63 \, 42 \, 0 \, 0 \,
5 \, 9 \, 9 \, 16 \, 17 \, 127 \, 127 \, 3 \, 9 \, 9 \, 9 \, 9 \, 9
\, 9 \, 9 \, 9 \, 9 \, 9 \, 9 \, 9 \, 9 \, 9 \, 9 \, 9 \, 1 \, 2 \,
3 \, 4 \, 5 \, 6 \, 7 \, 8 \, 9 \, 10 \, 11 \, 12 \, 13 \, 14 \, 15
\, 16 \, 247;
#X msg 140 348 240 \, 66 \, 64 \, 110 \, 8 \, 63 \, 10 \, 1 \, 127
\, 127 \, 127 \, 127 \, 127 \, 3 \, 83 \, 69 \, 89 \, 247;
#X obj 104 125 bng 30 250 50 0 empty empty start 0 -6 0 10 -4034 -1
-1;
#X msg 122 411 240 \, 66 \, 64 \, 110 \, 8 \, 63 \, 10 \, 1 \, 0 \,
0 \, 0 \, 0 \, 0 \, 3 \, 83 \, 69 \, 89 \, 247;
#X obj 140 126 bng 30 250 50 0 empty empty stop 0 -6 0 10 -258113 -1
-1;
#X text 321 182 start native mode;
#X text 344 210 stop native mode;
#X text 534 284 set sysex and midi;
#X text 514 357 turn on all lights;
#X text 496 421 turn off all lights;
#X obj 159 248 delay 250;
#X obj 140 323 delay 250;
#X obj 122 388 delay 250;
#X obj 104 -23 keyname;
#X symbolatom 143 1 10 0 0 0 - - -;
#X floatatom 104 0 5 0 0 0 - - -;
#X obj 104 28 spigot;
#X obj 104 56 sel F4 F5;
#N canvas 651 383 671 447 raw_MIDI 0;
#X floatatom 124 20 0 0 0 0 - - -;
#X floatatom 153 21 3 0 0 0 - - -;
#X obj 110 71 unpack 0 0 0 0 0 0 0 0 0;
#X floatatom 11 111 5 0 0 0 - - -;
#X floatatom 205 124 5 0 0 0 - - -;
#X floatatom 315 110 5 0 0 0 - - -;
#X floatatom 52 111 5 0 0 0 - - -;
#X floatatom 88 111 5 0 0 0 - - -;
#X floatatom 124 111 5 0 0 0 - - -;
#X floatatom 160 111 5 0 0 0 - - -;
#X floatatom 241 123 5 0 0 0 - - -;
#X floatatom 279 124 5 0 0 0 - - -;
#X obj 110 45 thresh 5;
#X obj 205 153 pack 0 0 0;
#X obj 205 181 s \$0-sideButs;
#X obj 421 60 notein 10;
#X floatatom 430 86 5 0 0 0 - - -;
#X floatatom 483 86 5 0 0 0 - - -;
#X obj 421 116 stripnote;
#X floatatom 431 142 5 0 0 0 - - -;
#X floatatom 481 142 5 0 0 0 - - -;
#X obj 325 250 sysexin;
#X floatatom 328 281 0 0 0 0 - - -;
#X floatatom 376 282 3 0 0 0 - - -;
#X obj 110 -6 midiin;
#X connect 2 0 3 0;
#X connect 2 1 6 0;
#X connect 2 2 7 0;
#X connect 2 3 8 0;
#X connect 2 4 9 0;
#X connect 2 5 4 0;
#X connect 2 6 10 0;
#X connect 2 7 11 0;
#X connect 2 8 5 0;
#X connect 4 0 13 0;
#X connect 10 0 13 1;
#X connect 11 0 13 2;
#X connect 12 0 2 0;
#X connect 13 0 14 0;
#X connect 15 0 16 0;
#X connect 15 0 18 0;
#X connect 15 1 17 0;
#X connect 15 1 18 1;
#X connect 18 0 19 0;
#X connect 18 1 20 0;
#X connect 21 0 22 0;
#X connect 21 1 23 0;
#X connect 24 0 0 0;
#X connect 24 0 12 0;
#X connect 24 1 1 0;
#X restore 291 140 pd raw_MIDI;
#X obj 554 92 line;
#X msg 554 169 240 \, 66 \, 64 \, 110 \, 8 \, 1 \, \$1 \, 0 \, 247
;
#X floatatom 554 144 5 0 0 0 - - -;
#X obj 554 117 int;
#X obj 554 199 midiout;
#X obj 175 119 bng 15 250 50 0 empty empty C 17 7 0 10 -262144 -1 -1
;
#X msg 554 63 40 \, 62 500;
#X msg 945 353 240 \, 66 \, 64 \, 110 \, 8 \, 1 \, \$1 \, 32 \, 247
;
#X obj 832 538 midiout;
#X obj 945 230 list split 1;
#X obj 967 287 list append;
#X floatatom 945 313 5 0 0 0 - - -;
#X obj 967 258 del;
#X msg 832 394 240 \, 66 \, 64 \, 110 \, 8 \, 1 \, \$1 \, 32 \, 247
;
#X obj 832 271 list split 1;
#X obj 854 328 list append;
#X floatatom 832 354 5 0 0 0 - - -;
#X obj 854 299 del;
#X msg 706 443 240 \, 66 \, 64 \, 110 \, 8 \, 1 \, \$1 \, 32 \, 247
;
#X obj 706 320 list split 1;
#X obj 728 377 list append;
#X floatatom 706 403 5 0 0 0 - - -;
#X obj 728 348 del;
#X msg 832 233 48 51 52 53 54;
#X msg 945 192 40 42 43 45 46;
#X msg 706 282 57 58 59 61 62;
#X obj 175 140 bng 15 250 50 0 empty empty Y 17 7 0 10 -262144 -1 -1
;
#X msg 167 493 1;
#X msg 210 492 2;
#X msg 878 487 1;
#X msg 921 486 2;
#X connect 1 0 0 0;
#X connect 1 0 13 0;
#X connect 2 0 0 0;
#X connect 3 0 0 0;
#X connect 4 0 0 0;
#X connect 5 0 1 0;
#X connect 6 0 0 0;
#X connect 7 0 2 0;
#X connect 13 0 3 0;
#X connect 13 0 14 0;
#X connect 14 0 4 0;
#X connect 14 0 15 0;
#X connect 15 0 6 0;
#X connect 16 0 18 0;
#X connect 16 1 17 0;
#X connect 17 0 19 0;
#X connect 18 0 19 1;
#X connect 19 0 20 0;
#X connect 20 0 5 0;
#X connect 20 1 7 0;
#X connect 22 0 25 0;
#X connect 23 0 26 0;
#X connect 24 0 23 0;
#X connect 25 0 24 0;
#X connect 27 0 28 0;
#X connect 28 0 22 0;
#X connect 29 0 30 0;
#X connect 31 0 33 0;
#X connect 31 0 34 0;
#X connect 31 1 32 1;
#X connect 32 0 31 0;
#X connect 33 0 29 0;
#X connect 34 0 32 0;
#X connect 35 0 30 0;
#X connect 36 0 38 0;
#X connect 36 0 39 0;
#X connect 36 1 37 1;
#X connect 37 0 36 0;
#X connect 38 0 35 0;
#X connect 39 0 37 0;
#X connect 40 0 30 0;
#X connect 41 0 43 0;
#X connect 41 0 44 0;
#X connect 41 1 42 1;
#X connect 42 0 41 0;
#X connect 43 0 40 0;
#X connect 44 0 42 0;
#X connect 45 0 36 0;
#X connect 46 0 31 0;
#X connect 47 0 41 0;
#X connect 48 0 47 0;
#X connect 48 0 45 0;
#X connect 48 0 46 0;
#X connect 49 0 0 1;
#X connect 50 0 0 1;
#X connect 51 0 30 1;
#X connect 52 0 30 1;
#X coords 0 -1 1 1 100 60 1 100 100;
#X restore -25 36 pd native_mode;
