#N canvas 281 178 1019 566 10;
#X msg -32090 -12412 bang;
#X obj -32090 -12391 t b b;
#X obj -32007 -12345 f;
#X obj -31969 -12345 + 1;
#X msg -31992 -12374 0;
#X obj -32090 -12362 until;
#X obj -32007 -12315 t f f;
#X obj -32063 -12315 sel 199;
#X obj -32652 -12130 cos~;
#X obj -32652 -12169 *~;
#X obj -32597 -12130 cos~;
#X obj -32505 -12185 wrap~;
#X obj -32543 -12185 -~;
#X obj -32598 -12153 +~;
#X obj -32596 -12092 -~;
#X obj -32596 -12067 *~;
#X obj -32652 -12051 +~;
#X obj -32543 -12217 samphold~;
#X floatatom -32541 -12427 4 0 127 0 - - -;
#X obj -32543 -12360 line~;
#X obj -32543 -12383 pack 0 50;
#X obj -32652 -12284 phasor~;
#X floatatom -32652 -12378 4 0 127 0 - - -;
#X text -32727 -12388 fundamental;
#X floatatom -32332 -12302 4 0 127 0 - - -;
#X obj -32332 -12231 line~;
#X obj -32421 -12133 *~;
#X obj -32332 -12254 pack 0 50;
#X obj -32421 -12159 cos~;
#X obj -32421 -12184 -~ 0.25;
#X obj -32421 -12107 +~ 100;
#X obj -32651 -12008 *~;
#X text -32399 -12069 waveshaper;
#X obj -32652 -12354 mtof;
#X obj -32528 -12337 expr 1/$f1;
#X obj -32543 -12407 mtof;
#X obj -32543 -12311 *~;
#X text -32305 -12302 bandwidth;
#X obj -32332 -12280 mtof;
#X obj -32332 -12195 *~;
#X obj -32332 -12171 *~ 25;
#X text -32292 -12197 divide by fundamental;
#X text -32274 -12172 range for table;
#X text -32374 -12107 offset to middle of table;
#X text -32536 -12289 C.F. relative;
#X text -32535 -12273 to fundamental;
#X text -32729 -12373 (MIDI units);
#X text -32615 -12010 ring mod;
#X obj -32421 -12209 *~ 0.5;
#X obj -32421 -12084 tabread4~ curve;
#X obj -32651 -11980 outlet~;
#X obj -32061 -12148 tabwrite curve;
#X obj -32091 -12182 expr exp(-$f1*$f1);
#X obj -32652 -12401 inlet;
#X obj -32541 -12448 inlet;
#X obj -32332 -12323 inlet;
#X obj -32012 -12221 inlet;
#X obj -32090 -12431 inlet;
#X obj -31932 -12221 inlet;
#X obj -32091 -12202 expr ($f1-100-$f2)/(25-$f3);
#X connect 0 0 1 0;
#X connect 1 0 5 0;
#X connect 1 1 4 0;
#X connect 2 0 3 0;
#X connect 2 0 6 0;
#X connect 2 0 7 0;
#X connect 3 0 2 1;
#X connect 4 0 2 1;
#X connect 5 0 2 0;
#X connect 6 0 59 0;
#X connect 6 1 51 1;
#X connect 7 0 5 1;
#X connect 8 0 14 1;
#X connect 8 0 16 0;
#X connect 9 0 13 0;
#X connect 9 0 8 0;
#X connect 10 0 14 0;
#X connect 11 0 12 1;
#X connect 11 0 15 1;
#X connect 12 0 9 1;
#X connect 13 0 10 0;
#X connect 14 0 15 0;
#X connect 15 0 16 1;
#X connect 16 0 31 0;
#X connect 17 0 12 0;
#X connect 17 0 11 0;
#X connect 18 0 35 0;
#X connect 19 0 36 0;
#X connect 20 0 19 0;
#X connect 21 0 17 1;
#X connect 21 0 9 0;
#X connect 21 0 13 1;
#X connect 21 0 48 0;
#X connect 22 0 33 0;
#X connect 24 0 38 0;
#X connect 25 0 39 0;
#X connect 26 0 30 0;
#X connect 27 0 25 0;
#X connect 28 0 26 0;
#X connect 29 0 28 0;
#X connect 30 0 49 0;
#X connect 31 0 50 0;
#X connect 33 0 34 0;
#X connect 33 0 21 0;
#X connect 34 0 36 1;
#X connect 34 0 39 1;
#X connect 35 0 20 0;
#X connect 36 0 17 0;
#X connect 38 0 27 0;
#X connect 39 0 40 0;
#X connect 40 0 26 1;
#X connect 48 0 29 0;
#X connect 49 0 31 1;
#X connect 52 0 51 0;
#X connect 53 0 22 0;
#X connect 54 0 18 0;
#X connect 55 0 24 0;
#X connect 56 0 59 1;
#X connect 57 0 0 0;
#X connect 58 0 59 2;
#X connect 59 0 52 0;
