#N canvas 892 100 450 300 10;
#N canvas 349 79 709 688 cron 0;
#X obj 101 101 cnv 15 197 127 empty empty empty 20 12 0 14 -233017
-66577 0;
#X obj 103 161 nbx 2 65 -1e+37 1e+37 0 0 empty empty empty 0 -16 0
38 -1 -4032 -1 21 256;
#X obj 103 -144 i;
#X obj 137 -144 + 1;
#X obj 283 101 tgl 15 0 startcm empty empty 17 7 0 10 -1 -4032 -1 1
1;
#X obj 103 -166 metro 60;
#X obj 288 163 vsl 8 60 0 60 0 0 \$9-modcount empty empty 0 -9 0 10
-1 -4032 -1 3835 1;
#X obj 278 163 vsl 8 60 0 60 0 0 \$8-modcount empty empty 0 -9 0 10
-1 -4032 -1 688 1;
#X obj 268 163 vsl 8 60 0 60 0 0 \$7-modcount empty empty 0 -9 0 10
-1 -4032 -1 983 1;
#X obj 258 163 vsl 8 60 0 60 0 0 \$5-modcount empty empty 0 -9 0 10
-1 -4032 -1 2557 1;
#X obj 248 163 vsl 8 60 0 60 0 0 \$4-modcount empty empty 0 -9 0 10
-1 -4032 -1 2065 1;
#X obj 238 163 vsl 8 60 0 60 0 0 \$3-modcount empty empty 0 -9 0 10
-1 -4032 -1 1573 1;
#X obj 228 163 vsl 8 60 0 60 0 0 \$2-modcount empty empty 0 -9 0 10
-1 -4032 -1 983 1;
#X obj 218 163 vsl 8 60 0 60 0 0 \$1-modcount empty empty 0 -9 0 10
-1 -4032 -1 295 1;
#X obj 208 163 vsl 8 60 0 60 0 0 \$0-modcount empty empty 0 -9 0 10
-1 -4032 -1 98 1;
#X text 147 116 CONTAGEM MODULAR;
#X obj 103 -185 tgl 15 0 empty startcm empty 17 7 0 10 -262144 -1 -1
1 1;
#X obj 103 -50 mod 34;
#X obj 103 -33 mod 23;
#X obj 103 -14 mod 18;
#X obj 103 4 mod 15;
#X obj 103 22 mod 7;
#X obj 103 39 mod 3;
#X obj 103 -105 mod 53;
#X obj 103 -86 mod 41;
#X obj 103 -68 mod 39;
#X text 112 135 \$0-modcount ..... \$8-modcount;
#X connect 2 0 3 0;
#X connect 2 0 17 0;
#X connect 2 0 18 0;
#X connect 2 0 19 0;
#X connect 2 0 20 0;
#X connect 2 0 21 0;
#X connect 2 0 22 0;
#X connect 2 0 23 0;
#X connect 2 0 24 0;
#X connect 2 0 25 0;
#X connect 3 0 2 1;
#X connect 5 0 2 0;
#X connect 16 0 5 0;
#X connect 17 0 9 0;
#X connect 18 0 1 0;
#X connect 18 0 10 0;
#X connect 19 0 11 0;
#X connect 20 0 12 0;
#X connect 21 0 13 0;
#X connect 22 0 14 0;
#X connect 23 0 6 0;
#X connect 24 0 7 0;
#X connect 25 0 8 0;
#X coords 0 -1 1 1 199 130 1 100 100;
#X restore -1003 -11141 pd cron;
