#N canvas 47 111 1317 685 10;
#X obj 43 19 noise~;
#X obj 43 50 s~ \$0-noise;
#X obj 43 86 bng 15 250 150 0 empty empty empty 17 7 0 10 -262144 -1
-1;
#X obj 46 117 hsl 128 15 0 2127 0 0 empty empty empty -2 -8 0 10 -262144
-1 -1 0 1;
#X obj 71 146 s $s-hz;
#X obj 43 217 expr $f1 * 2*pi_\$0 / sr_\$0;
#X obj 43 254 clip 0 1;
#X obj 76 294 sig~;
#X text 109 292 k (radians);
#X obj 76 330 s~ \$0-radians;
#X obj 43 379 trigger float float;
#X obj 43 409 expr 1 - $f1;
#X obj 90 452 pack float 0 float 0 0;
#X obj 90 488 s \$0-biquad;
#X obj 246 35 *;
#X obj 246 69 + 10;
#X floatatom 246 99 5 0 0 0 - - -;
#X floatatom 228 -9 5 0 0 0 - - -;
#X msg 273 -9 10;
#X obj 246 127 print;
#X obj 267 372 nbx 5 14 -1e+37 1e+37 0 0 empty empty empty 0 -8 0 10
-262144 -1 -1 0 256;
#N canvas 518 218 563 441 yynasob 0;
#X obj 126 122 inlet;
#X obj 126 240 outlet;
#X obj 126 203 nbx 5 14 -1e+37 1e+37 0 0 empty empty empty 0 -8 0 10
-262144 -1 -1 0 256;
#X obj 126 162 + 100;
#X connect 0 0 3 0;
#X connect 2 0 1 0;
#X connect 3 0 2 0;
#X coords 0 -1 1 1 120 120 1 110 110;
#X restore 267 394 pd yynasob;
#X obj 267 524 nbx 5 14 -1e+37 1e+37 0 0 empty empty empty 0 -8 0 10
-262144 -1 -1 0 256;
#X obj 43 177 nbx 10 14 -1e+37 1e+37 0 0 empty empty empty 0 -8 0 10
-262144 -1 -1 0 256;
#X obj 745 -50 r~ \$0-noise;
#X obj 848 -49 r~ \$0-radians;
#X obj 744 -6 onepole~ 0 radians;
#X obj 866 106 r~ \$0-noise;
#X obj 865 178 lop~;
#X obj 886 138 r \$0-hz;
#X obj 1004 1 r~ \$0-noise;
#X obj 1003 36 fexpr~ ($x * $x2) * ((1 - $x2) * $y);
#X obj 1042 244 r~ \$0-noise;
#X obj 1057 278 r~ \$0-radians;
#X obj 1073 316 expr~ 1 - $v1;
#X obj 1041 321 *~;
#X obj 1040 353 rpole~;
#X obj 699 317 r~ \$0-noise;
#X obj 698 347 fexpr~ $y + ($x2 * ($x - $y));
#X text 732 364 prev + (k * (in - prev));
#X obj 869 317 r~ \$0-radians;
#X text 867 296 [onepole~] SOURCE;
#X obj 1215 3 r~ \$0-radians;
#X text 1067 52 (in * k) + ((l -k) * prev);
#X text 1213 -18 [lop~] SOURCE;
#X obj 1201 158 r~ \$0-noise;
#X obj 1222 188 r \$0-biquad;
#X obj 1201 222 biquad~;
#X obj 970 511 loadbang;
#X obj 1051 617 tgl 15 0 empty empty empty 17 7 0 10 -262144 -1 -1
1 1;
#X obj 1051 647 metro 5000;
#X obj 1051 678 s \$0-bang;
#X msg 1088 569 \; pd dsp 1;
#X obj 842 574 samplerate~;
#X obj 842 601 v sr_\$0;
#X obj 917 615 expr atan(1) * 4;
#X obj 917 644 v pi_\$0;
#X text 44 -420 LOW PASS FILTER (INTRO);
#X obj 1208 532 metro;
#X obj 1211 504 hsl 128 15 0 127 0 0 empty empty rand-tones -2 -8 0
10 -262144 -1 -1 0 1;
#X obj 1208 608 osc~;
#X obj 1255 629 tgl 15 0 empty empty empty 17 7 0 10 -262144 -1 -1
0 1;
#X obj 1208 574 random;
#X obj 1208 644 *~;
#X obj 1306 531 hsl 128 15 0 127 0 0 empty empty empty -2 -8 0 10 -262144
-1 -1 0 1;
#X obj 1303 557 * 10;
#X obj 250 209 print -n;
#X text 44 -397 A low-pass filter is a filter that passes low-frequency
signals and attenuates (reduces the amplitude of) signals with frequencies
higher than the cutoff frequency. The actual amount of attenuation
for each frequency varies depending on specific filter design. It is
sometimes called a high-cut filter \, or treble cut filter in audio
applications. A low-pass filter is the opposite of a high-pass filter.
A band-pass filter is a combination of a low-pass and a high-pass.
Low-pass filters exist in many different forms \, including electronic
circuits (such as a hiss filter used in audio) \, anti-aliasing filters
for conditioning signals prior to analog-to-digital conversion \, digital
filters for smoothing sets of data \, acoustic barriers \, blurring
of images \, and so on. The moving average operation used in fields
such as finance is a particular kind of low-pass filter \, and can
be analyzed with the same signal processing techniques as are used
for other low-pass filters. Low-pass filters provide a smoother form
of a signal \, removing the short-term fluctuations \, and leaving
the longer-term trend. An optical filter can correctly be called a
low-pass filter \, but conventionally is called a longpass filter (low
frequency is long wavelength) \, to avoid confusion.;
#X obj 251 281 print tonussi;
#X msg 251 255 receive msg;
#X msg 250 182 Puredata~;
#N canvas 775 357 450 300 env~ 0;
#X obj 108 120 nbx 8 25 -1e+37 1e+37 0 0 empty empty empty 0 -8 0 10
-262144 -1 -1 0 256;
#X obj 108 35 inlet~;
#X obj 108 60 env~;
#X connect 1 0 2 0;
#X connect 2 0 0 0;
#X coords 0 -1 1 1 100 60 1 100 100;
#X restore 502 -137 pd env~;
#X obj 501 -267 r~ \$0-noise;
#X obj 597 -268 tgl 15 0 empty empty empty 17 7 0 10 -262144 -1 -1
0 1;
#X obj 597 -249 metro 1000;
#X obj 597 -226 f;
#X obj 623 -226 == 0;
#X msg 597 -202 \$1 500;
#X obj 597 -178 line~;
#X obj 502 -162 *~;
#X obj 846 -263 bp~ 9000 2;
#X obj 846 -310 r~ \$0-radians;
#X obj 961 -310 tgl 15 0 empty empty empty 17 7 0 10 -262144 -1 -1
0 1;
#X obj 961 -291 metro 1000;
#X obj 961 -268 f;
#X obj 987 -268 == 0;
#X msg 961 -244 \$1 500;
#X obj 961 -220 line~;
#X obj 846 -204 *~;
#X obj 501 -217 bp~ 8000 3;
#X text 358 21 Connect [throw~ mixl] or [throw~ mixr] to some source
of sound~. If it is a number \, must be env~ before you connect to
these.;
#X obj 1177 -354 hradio 15 1 0 8 empty empty empty 0 -8 0 10 -262144
-1 -1 0;
#X obj 1177 -280 until;
#X obj 1177 -249 int;
#X msg 1177 -221 Hello \$1;
#X msg 1273 -295 0;
#X msg 1311 -295 b lol;
#X obj 1273 -258 route a b c;
#X msg 1273 -228 hello;
#X msg 1321 -228 world;
#X obj 1177 -195 print -n;
#X obj 1273 -195 print -n;
#N canvas 490 143 485 586 mixer 0;
#X obj 191 56 env~;
#X obj 192 105 vu 20 120 empty empty -1 -8 0 10 -66577 -1 1 0;
#X obj 247 56 env~;
#X obj 248 105 vu 20 120 empty empty -1 -8 0 10 -66577 -1 1 0;
#X obj 105 123 output~;
#X obj 105 186 output~;
#X obj 247 75 - 100;
#X obj 191 75 - 100;
#X text 57 -1 Connect [throw~ mixl] or [throw~ mixr] to some source
of sound~. If it is a number \, must be env~ before you connect to
these.;
#X text 174 149 R;
#X text 174 213 L;
#X obj 105 105 catch~ mixr;
#X obj 105 168 catch~ mixl;
#X connect 0 0 7 0;
#X connect 2 0 6 0;
#X connect 6 0 3 0;
#X connect 7 0 1 0;
#X connect 11 0 4 0;
#X connect 11 0 4 1;
#X connect 11 0 0 0;
#X connect 12 0 5 0;
#X connect 12 0 5 1;
#X connect 12 0 2 0;
#X coords 0 -1 1 1 199 130 1 100 100;
#X restore 415 77 pd mixer;
#X connect 0 0 1 0;
#X connect 2 0 3 0;
#X connect 3 0 4 0;
#X connect 3 0 23 0;
#X connect 5 0 6 0;
#X connect 6 0 7 0;
#X connect 6 0 10 0;
#X connect 7 0 9 0;
#X connect 10 0 11 0;
#X connect 10 1 12 2;
#X connect 11 0 12 0;
#X connect 12 0 13 0;
#X connect 14 0 15 0;
#X connect 15 0 16 0;
#X connect 16 0 19 0;
#X connect 17 0 14 0;
#X connect 18 0 14 1;
#X connect 20 0 21 0;
#X connect 21 0 22 0;
#X connect 23 0 5 0;
#X connect 24 0 26 0;
#X connect 25 0 26 1;
#X connect 27 0 28 0;
#X connect 29 0 28 1;
#X connect 30 0 31 0;
#X connect 32 0 35 0;
#X connect 33 0 34 0;
#X connect 33 0 35 1;
#X connect 34 0 36 1;
#X connect 35 0 36 0;
#X connect 37 0 38 0;
#X connect 40 0 38 1;
#X connect 42 0 31 1;
#X connect 45 0 47 0;
#X connect 46 0 47 0;
#X connect 48 0 52 0;
#X connect 48 0 53 0;
#X connect 48 0 55 0;
#X connect 48 0 49 0;
#X connect 49 0 50 0;
#X connect 50 0 51 0;
#X connect 53 0 54 0;
#X connect 55 0 56 0;
#X connect 58 0 62 0;
#X connect 59 0 58 0;
#X connect 59 0 58 1;
#X connect 60 0 63 0;
#X connect 61 0 63 1;
#X connect 62 0 60 0;
#X connect 64 0 65 0;
#X connect 65 0 62 1;
#X connect 69 0 68 0;
#X connect 70 0 66 0;
#X connect 72 0 89 0;
#X connect 73 0 74 0;
#X connect 74 0 75 0;
#X connect 75 0 76 0;
#X connect 75 0 77 0;
#X connect 76 0 75 1;
#X connect 77 0 78 0;
#X connect 78 0 79 1;
#X connect 79 0 71 0;
#X connect 80 0 88 0;
#X connect 81 0 80 0;
#X connect 82 0 83 0;
#X connect 83 0 84 0;
#X connect 84 0 85 0;
#X connect 84 0 86 0;
#X connect 85 0 84 1;
#X connect 86 0 87 0;
#X connect 87 0 88 1;
#X connect 89 0 79 0;
#X connect 91 0 93 1;
#X connect 91 0 92 0;
#X connect 92 0 93 0;
#X connect 93 0 94 0;
#X connect 94 0 100 0;
#X connect 95 0 97 0;
#X connect 96 0 97 0;
#X connect 97 0 98 0;
#X connect 97 1 99 0;
#X connect 98 0 101 0;
#X connect 99 0 101 0;
