#N canvas 14 330 1003 429 10;
#X msg 60 133 disconnect;
#X obj 48 210 sendOSC;
#X obj 529 226 print "test" \$1;
#X obj 519 117 dumpOSC 12001;
#X floatatom 512 314 5 0 0 0 - - -;
#X floatatom 313 137 5 0 0 0 - - -;
#X floatatom 358 140 5 0 0 0 - - -;
#X obj 296 228 print;
#X obj 296 114 bang;
#X text 517 91 dunoOSC listens for incoming messages in PD;
#X text 50 53 connect to a remote address (127.0.0.1) that is listening
on udp networkport 12000 for incoming osc messages. click the connect
button below to activate the connection.;
#X obj 296 190 pack f f;
#X obj 453 387 hsl 128 15 0 127 0 1 empty empty empty -2 -6 0 8 -262144
-1 -1 8362 1;
#X msg 66 160 send /audio \$1 \$2;
#X obj 519 189 OSCroute /audio;
#X msg 52 110 connect 127.0.0.1 12000;
#X obj 451 586 inlet;
#X obj 451 783 noteout;
#X floatatom 451 613 0 0 0 0 - - -;
#X obj 472 673 loadbang;
#X obj 451 757 makenote;
#X floatatom 544 687 0 0 0 0 - - -;
#X obj 451 731 f;
#X floatatom 588 687 0 0 0 0 - - -;
#X floatatom 631 687 0 0 0 0 - - -;
#X msg 518 637 60;
#X msg 547 637 64;
#X msg 575 637 250;
#X text 542 666 pitch;
#X text 587 666 vel;
#X text 623 667 length;
#X floatatom 568 811 3 0 0 0 - - -;
#X obj 523 759 notein;
#X obj 523 785 stripnote;
#X floatatom 523 810 3 0 0 0 - - -;
#X obj 523 830 bng 20 250 50 0 empty empty empty 17 7 0 10 -262144
-1 -1;
#X obj 516 267 unpack f f f f f f;
#N canvas 0 22 450 300 (subpatch) 0;
#X array additive_clip 1000 float 0;
#X coords 0 1 999 -1 200 100 1;
#X restore 875 693 graph;
#X text 853 780 -1;
#X text 859 735 0;
#X text 859 689 1;
#X obj 490 337 + 50;
#X connect 0 0 1 0;
#X connect 3 0 14 0;
#X connect 4 0 41 0;
#X connect 5 0 11 0;
#X connect 6 0 8 0;
#X connect 6 0 11 1;
#X connect 8 0 11 0;
#X connect 11 0 7 0;
#X connect 11 0 13 0;
#X connect 12 0 18 0;
#X connect 13 0 1 0;
#X connect 14 0 2 0;
#X connect 14 0 36 0;
#X connect 15 0 1 0;
#X connect 16 0 18 0;
#X connect 18 0 22 0;
#X connect 19 0 25 0;
#X connect 19 0 26 0;
#X connect 19 0 27 0;
#X connect 20 0 17 0;
#X connect 20 1 17 1;
#X connect 21 0 22 1;
#X connect 22 0 20 0;
#X connect 23 0 20 1;
#X connect 24 0 20 2;
#X connect 25 0 21 0;
#X connect 26 0 23 0;
#X connect 27 0 24 0;
#X connect 32 0 33 0;
#X connect 32 1 33 1;
#X connect 33 0 34 0;
#X connect 33 1 31 0;
#X connect 34 0 35 0;
#X connect 36 0 4 0;
#X connect 41 0 12 0;
