#N canvas 49 54 1317 714 12;
#X obj -849 -596 openpanel;
#X obj -849 -492 soundfiler;
#X obj -849 -627 bng 15 250 50 0 empty empty Load_File 17 7 0 12 -195003
-1 -1;
#X obj -851 -312 s \$0-maxpower;
#X obj -849 -456 send \$0-filelength;
#X obj -227 -605 hsl 128 15 0 1 0 0 empty empty size(sample) -2 -10
0 12 -203904 -1 -1 0 1;
#X obj -213 -570 r \$0-maxpower;
#X obj -230 -491 *;
#X obj -230 -455 div 1;
#X floatatom -212 -527 20 0 0 2 maxpower #0-maxpower -;
#X floatatom -850 -399 15 0 0 2 filelength #0-filelength -;
#X obj -230 -419 t b f;
#X msg -230 -383 2;
#X obj -230 -347 pow;
#X obj -230 -311 + 3;
#X obj -177 -157 send \$0-samplesize;
#X obj -230 -112 send \$0-samplesize;
#X floatatom -229 -53 20 0 0 2 samplesize #0-samplesize -;
#X floatatom -146 -494 20 0 0 1 filelength #0-filelength -;
#X floatatom -113 -463 20 0 0 1 samplesize #0-samplesize -;
#X obj -113 -428 t b f;
#X obj -146 -381 -;
#X obj -146 -347 t b f;
#X floatatom -147 -258 20 0 0 1 samplesize #0-samplesize -;
#X obj 216 -577 r \$0-maxstart;
#X floatatom 216 -535 20 0 0 2 maxstart #0-maxstart -;
#X obj 198 -502 *;
#X obj 198 -469 div 1;
#X obj 198 -434 send \$0-samplestart;
#X floatatom 197 -379 20 0 0 2 samplestart #0-samplestart -;
#X obj 201 -608 hsl 128 15 0 1 0 0 empty \$0-resizebang ssp -2 -8 0
10 -204786 -1 -1 0 1;
#X msg -147 -223 \; sample resize \$1;
#X obj -114 -317 send \$0-maxstart;
#X obj -146 -287 send \$0-resizebang;
#N canvas 322 161 715 442 power 0;
#X obj 126 32 bng 15 250 50 0 empty \$0-filelength empty 17 7 0 10
-203904 -1 -1;
#X obj 126 64 tgl 15 0 empty empty empty 17 7 0 10 -262144 -1 -1 0
1;
#X obj 126 95 metro 1;
#X obj 212 130 + 1;
#X obj 126 237 pow;
#X obj 126 276 + 3;
#X obj 126 313 moses;
#X msg 183 339 \; stopcalc 0;
#X obj 212 44 receive stopcalc;
#X obj 70 167 - 1;
#X obj 70 205 outlet;
#X msg 126 203 2;
#X msg 212 98 1;
#X floatatom 193 294 20 0 0 2 filelength #0-filelength -;
#X obj 126 170 t b f;
#X floatatom 462 167 20 0 0 0 - - -;
#X floatatom 462 89 20 0 127 0 - - -;
#X obj 94 341 print;
#X text 459 62 Testing Session;
#X obj 462 130 expr if ( $i1 > 3 && $i1 < 128 \, pow(2 \, $i1) + 3
\, 11 );
#X obj 126 132 f 1;
#X obj 195 192 bng 25 250 50 0 empty empty Testado 27 7 0 12 -4034
-1 -1;
#X obj 195 241 print;
#X msg 195 219 modulo pronto;
#X connect 0 0 1 0;
#X connect 1 0 2 0;
#X connect 2 0 20 0;
#X connect 3 0 20 1;
#X connect 4 0 5 0;
#X connect 5 0 6 0;
#X connect 6 0 17 0;
#X connect 6 1 7 0;
#X connect 8 0 1 0;
#X connect 8 0 12 0;
#X connect 9 0 10 0;
#X connect 11 0 4 0;
#X connect 12 0 20 1;
#X connect 13 0 6 1;
#X connect 14 0 11 0;
#X connect 14 1 4 1;
#X connect 16 0 19 0;
#X connect 19 0 15 0;
#X connect 20 0 3 0;
#X connect 20 0 9 0;
#X connect 20 0 14 0;
#X connect 21 0 23 0;
#X connect 23 0 22 0;
#X restore -851 -356 pd power;
#X floatatom 536 -569 20 0 0 2 samplesize #0-samplesize -;
#X obj 518 -497 *;
#X obj 518 -461 div 1;
#X floatatom 519 -377 20 0 0 2 smoother #0-smoother -;
#X obj 518 -427 send \$0-smoother;
#X obj 536 -533 * 0.5;
#X obj 521 -608 hsl 128 15 0 1 0 0 empty \$0-resizebang hts -2 -8 0
10 -228856 -1 -1 0 1;
#X floatatom -851 -267 20 0 0 2 maxpower #0-maxpower -;
#X obj -230 -209 moses 11;
#X obj 848 -617 bng 15 250 50 0 empty empty load(sample) 17 7 0 10
-262144 -1 -1;
#X obj 848 -587 tgl 15 0 empty empty empty 17 7 0 10 -262144 -1 -1
0 1;
#X obj 848 -504 f 0;
#X obj 887 -504 + 1;
#X floatatom 880 -465 5 0 0 0 - #0-samplesize -;
#X obj 848 -427 moses;
#X floatatom 848 -384 5 0 0 0 - - -;
#X floatatom 880 -350 5 0 0 0 - - -;
#X msg 880 -309 \; stopload 0;
#X obj 848 -254 send \$0-indexpoint;
#N canvas 292 142 879 489 samplebuilder 0;
#X floatatom 35 69 5 0 0 2 indexpoint #0-indexpoint -;
#X floatatom 97 93 5 0 0 2 smoother #0-smoother -;
#X floatatom 72 208 20 0 0 2 samplestart #0-samplestart -;
#X obj 97 132 t b f;
#X obj 35 165 moses;
#X obj 35 194 +;
#X obj 35 235 tabread file;
#X obj 35 274 t b f;
#X obj 107 262 bng 15 250 50 0 empty stopload empty 17 7 0 10 -262144
-1 -1;
#X obj 67 328 f 0;
#X obj 107 327 + 1;
#X msg 107 291 0;
#X obj 67 384 /;
#X floatatom 114 365 5 0 0 1 smoother #0-smoother -;
#X obj 67 419 t f f;
#X obj 67 453 *;
#X obj 35 483 *;
#X obj 384 70 - 1;
#X floatatom 384 28 5 0 0 2 samplesize #0-samplesize -;
#X floatatom 432 50 5 0 0 2 smoother #0-smoother -;
#X obj 432 91 t b f;
#X obj 384 152 -;
#X obj 352 185 moses;
#X obj 352 254 +;
#X floatatom 370 226 20 0 0 2 samplestart #0-samplestart -;
#X obj 352 294 tabread file;
#X obj 35 696 tabwrite sample;
#X floatatom 137 665 20 0 0 2 indexpoint #0-indexpoint -;
#X obj 35 516 s t_tw_0;
#X obj 352 331 s t_tw_1;
#X obj 629 556 s t_tw_2;
#X obj 35 553 r t_tw_0;
#X obj 50 584 r t_tw_1;
#X obj 63 617 r t_tw_2;
#X floatatom 685 186 20 0 0 2 samplestart #0-samplestart -;
#X obj 629 205 +;
#X obj 629 232 tabread file;
#X obj 629 324 t b f;
#X obj 661 423 /;
#X floatatom 739 404 5 0 0 2 smoother #0-smoother -;
#X obj 661 458 t f f;
#X obj 661 492 *;
#X obj 629 522 *;
#X obj 661 372 f;
#X msg 679 343 \$1;
#X floatatom 727 293 5 0 0 2 smoother #0-smoother -;
#X obj 679 257 bng 15 250 50 0 empty stopload empty 17 7 0 10 -262144
-1 -1;
#X msg 679 282 0;
#X obj 679 312 +;
#X obj 714 372 - 1;
#X floatatom 303 750 20 0 0 0 - - -;
#X floatatom 318 723 20 0 0 0 - - -;
#X floatatom 331 695 20 0 0 0 - - -;
#X obj 36 723 bng 25 250 50 0 empty empty Testado 27 7 0 12 -4034 -1
-1;
#X obj 36 772 print;
#X obj 303 608 r t_tw_0;
#X obj 318 637 r t_tw_1;
#X obj 331 667 r t_tw_2;
#X obj 302 -21 cnv 15 250 25 empty empty empty 20 12 0 14 -204800 -66577
0;
#X text 334 -20 Calcula o ponto de fadeout;
#X msg 36 750 modulo pronto;
#X connect 0 0 4 0;
#X connect 1 0 3 0;
#X connect 2 0 5 1;
#X connect 3 0 4 0;
#X connect 3 1 4 1;
#X connect 4 0 5 0;
#X connect 4 1 22 0;
#X connect 5 0 6 0;
#X connect 6 0 7 0;
#X connect 7 0 16 0;
#X connect 7 1 9 0;
#X connect 8 0 11 0;
#X connect 9 0 10 0;
#X connect 9 0 12 0;
#X connect 10 0 9 1;
#X connect 11 0 10 0;
#X connect 12 0 14 0;
#X connect 13 0 12 1;
#X connect 14 0 15 0;
#X connect 14 1 15 1;
#X connect 15 0 16 1;
#X connect 16 0 28 0;
#X connect 17 0 21 0;
#X connect 18 0 17 0;
#X connect 19 0 20 0;
#X connect 20 0 21 0;
#X connect 20 1 21 1;
#X connect 21 0 22 1;
#X connect 22 0 23 0;
#X connect 22 1 35 0;
#X connect 23 0 25 0;
#X connect 24 0 23 1;
#X connect 25 0 29 0;
#X connect 27 0 26 1;
#X connect 31 0 26 0;
#X connect 32 0 26 0;
#X connect 33 0 26 0;
#X connect 34 0 35 1;
#X connect 35 0 36 0;
#X connect 36 0 37 0;
#X connect 37 0 42 0;
#X connect 37 1 43 0;
#X connect 38 0 40 0;
#X connect 39 0 38 1;
#X connect 40 0 41 0;
#X connect 40 1 41 1;
#X connect 41 0 42 1;
#X connect 42 0 30 0;
#X connect 43 0 38 0;
#X connect 43 0 49 0;
#X connect 44 0 43 1;
#X connect 45 0 48 1;
#X connect 45 0 44 0;
#X connect 46 0 47 0;
#X connect 47 0 48 0;
#X connect 48 0 44 0;
#X connect 49 0 43 1;
#X connect 53 0 60 0;
#X connect 55 0 50 0;
#X connect 56 0 51 0;
#X connect 57 0 52 0;
#X connect 60 0 54 0;
#X restore 847 -218 pd samplebuilder;
#X msg 951 -546 0;
#X obj 848 -554 metro 0.0001;
#X msg 951 -575 bang;
#X obj 951 -607 r stopload;
#X obj -461 -450 tabplay~ file;
#X msg -453 -603 bang;
#X msg -442 -580 stop;
#X msg -427 -534 0 44100;
#X obj -461 -621 bng 15 250 50 0 empty empty play(file) 17 7 0 10 -203904
-4160 -1;
#X msg -421 -510 44100 10000;
#X msg -435 -557 44100;
#X obj 471 -662 cnv 15 250 25 empty empty empty 20 12 0 14 -232576
-66577 0;
#X text 518 -662 Head and Tail Smoother;
#X obj 137 -662 cnv 15 250 25 empty empty empty 20 12 0 14 -232576
-66577 0;
#X text 184 -662 Simple Sampler Parser;
#X obj -273 -662 cnv 15 250 25 empty empty empty 20 12 0 14 -232576
-66577 0;
#X text -212 -662 Sizing Definition;
#X obj 812 -662 cnv 15 250 25 empty empty empty 20 12 0 14 -232576
-66577 0;
#N canvas 0 0 450 300 (subpatch) 0;
#X array file 667013 float 2;
#X coords 0 1 667013 -1 500 50 1 0 0;
#X restore 200 -204 graph;
#N canvas 0 0 450 300 (subpatch) 0;
#X array sample 4 float 2;
#X coords 0 1 4 -1 500 50 1 0 0;
#X restore 199 -126 graph;
#X obj -607 -662 cnv 15 250 25 empty empty empty 20 12 0 14 -232576
-66577 0;
#X obj -910 -662 cnv 15 250 25 empty empty empty 20 12 0 14 -232576
-66577 0;
#X text -546 -662 Play the audio file;
#X text -869 -662 Load audio file (wav \, mp3);
#X msg -593 -605 bang;
#X msg -582 -582 stop;
#X msg -567 -536 0 44100;
#X obj -601 -623 bng 15 250 50 0 empty empty play(file) 17 7 0 10 -203904
-4160 -1;
#X msg -561 -512 44100 10000;
#X msg -575 -559 44100;
#X obj -601 -450 tabplay~ sample;
#X text 842 -662 Load Change into Sample Array;
#X obj -818 286 notein;
#X floatatom -846 337 5 0 0 0 - - -;
#X floatatom -799 338 5 0 0 0 - - -;
#X floatatom -755 338 5 0 0 0 - - -;
#X text -1241 -662 Tonussi Wavetable Synth Version 0.3-r2;
#X text -1241 768 Tonussi Wavetable Synth Version 0.3-r2;
#X obj -910 170 cnv 15 250 25 empty empty empty 20 12 0 14 -232576
-66577 0;
#X text -869 170 Load audio file (wav \, mp3);
#X obj -801 395 poly 8 1;
#X obj -808 440 pack 0 0 0;
#N canvas 642 200 450 300 polytouchsynth 0;
#X obj 52 46 inlet polypack;
#X restore -851 537 pd polytouchsynth;
#N canvas 50 79 450 300 (subpatch) 0;
#X array table21 667013 float 0;
#X coords 0 1.02 667012 -1.02 500 50 1 0 0;
#X restore 199 -54 graph;
#X obj 1193 86 hip~ 5;
#X floatatom 1161 -347 0 0 0 0 - - -;
#X obj 1161 -322 * 441;
#X obj 1162 -86 +~ 1;
#X text 1198 -348 <-- chunk size (100ths of a second);
#X obj 1349 67 adc~ 1;
#X obj 1349 92 hip~ 5;
#X msg 1364 114 bang;
#X obj 1194 2 *~;
#X obj 1211 -118 line~;
#X obj 1211 -170 * 441;
#X floatatom 1211 -195 0 0 0 0 - - -;
#X obj 1211 -143 pack 0 100;
#X text 1303 -270 <-- read point in 100ths of a second;
#X obj 1194 -47 +~;
#X obj 1211 -87 samphold~;
#X obj 1161 -272 samphold~;
#X obj 1161 -297 sig~;
#X obj 1161 -225 *~;
#X obj 1390 -88 r~ phase;
#X obj 1161 -392 s~ phase;
#X obj 1220 -296 r~ phase;
#X obj 1178 -249 r~ phase;
#X obj 1271 -118 r~ phase;
#X obj 1302 -302 s chunk-size;
#X floatatom 1160 -586 0 0 0 0 - - -;
#X text 1198 -585 <-- transposition (10ths of a halftone);
#X text 1415 -314 chunk size;
#X text 1415 -292 in seconds;
#X obj 1172 -519 r chunk-size;
#X obj 1172 -487 t b f;
#X obj 1161 -447 /;
#X text 1231 -486 divide speed change by chunk;
#X text 1229 -465 size to get loop frequency;
#X obj 1160 -609 loadbang;
#X obj 1390 -64 -~ 0.5;
#X obj 1390 -40 *~ 0.5;
#X obj 1390 -17 cos~;
#X obj 1193 124 output~;
#X obj 1194 -22 tabread4~ table21;
#X text 1405 114 <-- record;
#X obj 1161 -561 expr pow(2 \, $f1/120);
#X text 1349 -561 speed change;
#X obj 1161 -418 phasor~;
#X obj 1349 141 tabwrite~ table21;
#X obj 1158 -663 cnv 15 250 25 empty empty empty 20 12 0 14 -232576
-66577 0;
#X obj -601 -418 output~;
#X obj -461 -419 output~;
#X msg -849 -559 read -resize \$1 file;
#X msg -831 -526 read -resize \$1 table21;
#X text 1181 -662 comment;
#X text 1238 -663 Loop a sample;
#X obj 1303 -327 * 0.077;
#X obj -230 298 adc~;
#X obj -246 417 output~;
#X obj -246 348 *~ 0.5;
#X obj -187 348 *~ 0.5;
#X obj -177 300 hsl 128 10 0 0.3 0 0 empty empty empty -2 -8 0 10 -203904
-1 -1 0 1;
#X obj -290 170 cnv 15 250 25 empty empty empty 20 12 0 14 -232576
-66577 0;
#X text -243 171 Mic Recording Session;
#X obj 346 243 grid grid2 200 0 199 200 0 199 1 1 1 10 10 416 316;
#X floatatom 346 450 5 0 0 0 - - -;
#X floatatom 539 450 5 0 0 0 - - -;
#X obj 315 161 cnv 15 250 25 empty empty empty 20 12 0 14 -232576 -66577
0;
#X text 389 161 Mixing Session;
#X connect 0 0 147 0;
#X connect 0 0 148 0;
#X connect 1 0 4 0;
#X connect 2 0 0 0;
#X connect 5 0 7 0;
#X connect 7 0 8 0;
#X connect 8 0 11 0;
#X connect 9 0 7 1;
#X connect 11 0 12 0;
#X connect 11 1 13 1;
#X connect 12 0 13 0;
#X connect 13 0 14 0;
#X connect 14 0 43 0;
#X connect 18 0 21 0;
#X connect 19 0 20 0;
#X connect 20 0 21 0;
#X connect 20 1 21 1;
#X connect 21 0 22 0;
#X connect 22 0 33 0;
#X connect 22 1 32 0;
#X connect 23 0 31 0;
#X connect 25 0 26 1;
#X connect 26 0 27 0;
#X connect 27 0 28 0;
#X connect 30 0 26 0;
#X connect 34 0 3 0;
#X connect 35 0 40 0;
#X connect 36 0 37 0;
#X connect 37 0 39 0;
#X connect 40 0 36 1;
#X connect 41 0 36 0;
#X connect 43 0 16 0;
#X connect 43 1 15 0;
#X connect 44 0 45 0;
#X connect 45 0 56 0;
#X connect 46 0 47 0;
#X connect 46 0 49 0;
#X connect 47 0 46 1;
#X connect 48 0 49 1;
#X connect 49 0 50 0;
#X connect 49 1 51 0;
#X connect 50 0 53 0;
#X connect 51 0 52 0;
#X connect 55 0 46 1;
#X connect 56 0 46 0;
#X connect 57 0 55 0;
#X connect 58 0 45 0;
#X connect 58 0 57 0;
#X connect 59 0 146 0;
#X connect 59 0 146 1;
#X connect 60 0 59 0;
#X connect 61 0 59 0;
#X connect 62 0 59 0;
#X connect 63 0 59 0;
#X connect 64 0 59 0;
#X connect 65 0 59 0;
#X connect 79 0 85 0;
#X connect 80 0 85 0;
#X connect 81 0 85 0;
#X connect 82 0 85 0;
#X connect 83 0 85 0;
#X connect 84 0 85 0;
#X connect 85 0 145 0;
#X connect 85 0 145 1;
#X connect 87 0 88 0;
#X connect 87 1 89 0;
#X connect 87 2 90 0;
#X connect 88 0 95 0;
#X connect 89 0 95 1;
#X connect 95 0 96 0;
#X connect 95 1 96 1;
#X connect 95 2 96 2;
#X connect 99 0 137 0;
#X connect 99 0 137 1;
#X connect 100 0 101 0;
#X connect 100 0 151 0;
#X connect 101 0 116 0;
#X connect 102 0 113 0;
#X connect 104 0 105 0;
#X connect 105 0 143 0;
#X connect 106 0 143 0;
#X connect 107 0 99 0;
#X connect 108 0 114 0;
#X connect 109 0 111 0;
#X connect 110 0 109 0;
#X connect 111 0 108 0;
#X connect 113 0 138 0;
#X connect 114 0 113 1;
#X connect 115 0 117 0;
#X connect 116 0 115 0;
#X connect 117 0 102 0;
#X connect 118 0 134 0;
#X connect 120 0 115 1;
#X connect 121 0 117 1;
#X connect 122 0 114 1;
#X connect 124 0 140 0;
#X connect 128 0 129 0;
#X connect 129 0 130 0;
#X connect 129 1 130 1;
#X connect 130 0 142 0;
#X connect 133 0 124 0;
#X connect 134 0 135 0;
#X connect 135 0 136 0;
#X connect 136 0 107 1;
#X connect 138 0 107 0;
#X connect 140 0 130 0;
#X connect 142 0 119 0;
#X connect 147 0 1 0;
#X connect 148 0 1 0;
#X connect 151 0 123 0;
#X connect 152 0 154 0;
#X connect 152 1 155 0;
#X connect 154 0 153 0;
#X connect 155 0 153 1;
#X connect 156 0 154 1;
#X connect 156 0 155 1;
#X connect 159 0 160 0;
#X connect 159 1 161 0;
#X coords 0 0 10 10 0 0 0;
