#N canvas 584 138 580 256 10;
#X obj 12 6 cnv 40 560 240 empty empty empty 20 12 0 14 -162280 -66577
0;
#N canvas 0 0 1052 494 SinthAdd 0;
#X obj 40 254 osc~;
#X floatatom 40 227 5 0 0 0 - - -;
#X obj 40 297 *~;
#X floatatom 82 269 5 0 0 0 - - -;
#X obj 132 255 osc~;
#X floatatom 132 228 5 0 0 0 - - -;
#X obj 132 298 *~;
#X floatatom 174 270 5 0 0 0 - - -;
#X obj 223 253 osc~;
#X floatatom 223 226 5 0 0 0 - - -;
#X obj 223 296 *~;
#X floatatom 265 268 5 0 0 0 - - -;
#X obj 312 252 osc~;
#X floatatom 312 225 5 0 0 0 - - -;
#X obj 312 295 *~;
#X floatatom 354 267 5 0 0 0 - - -;
#X obj 404 253 osc~;
#X floatatom 404 226 5 0 0 0 - - -;
#X obj 404 296 *~;
#X floatatom 446 268 5 0 0 0 - - -;
#X obj 495 251 osc~;
#X floatatom 495 224 5 0 0 0 - - -;
#X obj 495 294 *~;
#X floatatom 537 266 5 0 0 0 - - -;
#X obj 586 251 osc~;
#X floatatom 586 224 5 0 0 0 - - -;
#X obj 586 294 *~;
#X floatatom 628 266 5 0 0 0 - - -;
#X obj 677 249 osc~;
#X floatatom 677 222 5 0 0 0 - - -;
#X obj 677 292 *~;
#X floatatom 719 264 5 0 0 0 - - -;
#X obj 317 432 *~;
#X floatatom 393 420 5 0 0 0 - - -;
#X obj 567 145 unpack 0 0 0 0 0 0 0 0;
#X obj 44 142 unpack 0 0 0 0 0 0 0 0;
#X obj 567 74 inlet;
#X obj 39 71 inlet;
#X text 552 49 frequencias;
#X text 37 43 volume;
#X obj 868 386 inlet;
#X text 826 366 volume geral;
#X obj 315 471 dac~;
#X connect 0 0 2 0;
#X connect 1 0 0 0;
#X connect 2 0 32 0;
#X connect 3 0 2 1;
#X connect 4 0 6 0;
#X connect 5 0 4 0;
#X connect 6 0 32 0;
#X connect 7 0 6 1;
#X connect 8 0 10 0;
#X connect 9 0 8 0;
#X connect 10 0 32 0;
#X connect 11 0 10 1;
#X connect 12 0 14 0;
#X connect 13 0 12 0;
#X connect 14 0 32 0;
#X connect 15 0 14 1;
#X connect 16 0 18 0;
#X connect 17 0 16 0;
#X connect 18 0 32 0;
#X connect 19 0 18 1;
#X connect 20 0 22 0;
#X connect 21 0 20 0;
#X connect 22 0 32 0;
#X connect 23 0 22 1;
#X connect 24 0 26 0;
#X connect 25 0 24 0;
#X connect 26 0 32 0;
#X connect 27 0 26 1;
#X connect 28 0 30 0;
#X connect 29 0 28 0;
#X connect 30 0 32 0;
#X connect 31 0 30 1;
#X connect 32 0 42 0;
#X connect 32 0 42 1;
#X connect 33 0 32 1;
#X connect 34 0 1 0;
#X connect 34 1 5 0;
#X connect 34 2 9 0;
#X connect 34 3 13 0;
#X connect 34 4 17 0;
#X connect 34 5 21 0;
#X connect 34 6 25 0;
#X connect 34 7 29 0;
#X connect 35 0 3 0;
#X connect 35 1 7 0;
#X connect 35 2 11 0;
#X connect 35 3 15 0;
#X connect 35 4 19 0;
#X connect 35 5 23 0;
#X connect 35 6 27 0;
#X connect 35 7 31 0;
#X connect 36 0 34 0;
#X connect 37 0 35 0;
#X connect 40 0 33 0;
#X restore 41 221 pd SinthAdd;
#X text 14 9 Freqs;
#X msg 15 36 50 89 180 220 310 600 680 800;
#X msg 15 63 50 100 150 250 400 750 1050 1800;
#X msg 16 89 50 150 300 600 1200 2400 4800 9600;
#X msg 16 113 50 232 398 500 571 682 802 1000;
#X msg 317 35 0.8 0.6 0.5 0.5 0.4 0.4 0.3 0.3;
#X msg 319 58 0.8 0.5 0.8 0.4 0.8 0.5 0.7 0.3;
#X msg 319 82 0.3 0.3 0.2 0.5 0.6 0.5 0.4 0.8;
#X text 318 10 Amps;
#X msg 319 109 0.5 0.6 0.3 0.8 0.3 0.5 0.2 0.6;
#X obj 200 194 hsl 128 25 0 1 0 0 empty empty Volume -2 -8 0 10 -204786
-1 -1 0 1;
#X text 427 13 comment;
#X text 110 49 comment;
#X connect 3 0 1 1;
#X connect 4 0 1 1;
#X connect 5 0 1 1;
#X connect 6 0 1 1;
#X connect 7 0 1 0;
#X connect 8 0 1 0;
#X connect 9 0 1 0;
#X connect 11 0 1 0;
#X connect 12 0 1 2;
