#N canvas 8 0 576 639 10;
#X obj 21 143 mtof~;
#X obj 22 293 +~;
#X obj 21 122 ctlin 17 1;
#X obj 39 206 osc~;
#X obj 38 271 *~;
#X obj 39 186 mtof~;
#X obj 54 249 mtof~;
#X obj 22 313 osc~;
#X obj 22 338 dac~;
#X obj 22 25 ctlin;
#X floatatom 22 83 5 0 0 0 - - -;
#X floatatom 49 45 5 0 0 0 - - -;
#X floatatom 35 64 5 0 0 0 - - -;
#X text 87 47 channel number;
#X text 72 67 controller number;
#X text 61 87 controller value;
#X text 202 29 in this case turning a knob we realize the controller
was the number 6 and its data is being processed through channel 1
;
#X text 91 118 carrier frequency will be received from controller 17
in channel 1;
#X text 103 160 modulation frequency will be received from controller
9 in channel 1;
#X text 118 224 modulation amount will be received from controller
6 in channel 17 (second device);
#X obj 39 166 ctlin 16 1;
#X obj 54 229 ctlin 19 1;
#X connect 0 0 1 0;
#X connect 1 0 7 0;
#X connect 2 0 0 0;
#X connect 3 0 4 0;
#X connect 4 0 1 1;
#X connect 5 0 3 0;
#X connect 6 0 4 1;
#X connect 7 0 8 0;
#X connect 7 0 8 1;
#X connect 9 0 10 0;
#X connect 9 1 12 0;
#X connect 9 2 11 0;
#X connect 20 0 5 0;
#X connect 21 0 6 0;
